<?xml version="1.0" encoding="UTF-8"?><svg xmlns="http://www.w3.org/2000/svg" viewBox="0 0 500 500"><defs><style>.cls-1{opacity:.1;}.cls-2{fill:#f6f6f6;}.cls-3{fill:#ebebeb;}.cls-4{fill:#ffe088;}.cls-5{fill:#fff;}.cls-6{fill:#ffdb73;}.cls-7{fill:#fff7df;}.cls-8{fill:#ff9cbd;}.cls-9{fill:#ffe8a6;}.cls-10{fill:#ffcd3d;}.cls-11{fill:#ffc727;}.cls-12,.cls-13,.cls-14,.cls-15,.cls-16{fill:#ffcf00;}.cls-17{fill:#e5e5e5;}.cls-18{fill:#efefef;}.cls-19{fill:#656d51;}.cls-20{fill:#8b9962;}.cls-21{fill:#a6a6a6;}.cls-22{fill:#c7c7c7;}.cls-23{fill:#d6d6d6;}.cls-24{fill:#d3bbab;}.cls-25{fill:#788469;}.cls-13,.cls-26{opacity:.2;}.cls-27,.cls-16{opacity:.4;}.cls-28,.cls-14{opacity:.6;}.cls-29,.cls-15{opacity:.8;}</style></defs><g id="Plant"><path class="cls-19" d="M110.68,288.63c-3.15-3.09-7.22-6.82-12.04-5.49-4.53,1.25-6.27,6.2-7.08,10.32-1.05,5.31-1.86,10.68-2.7,16.02-.85,5.4-1.65,10.81-2.43,16.22-.44,3.05-.87,6.11-1.3,9.16-.21,1.53-.43,3.06-.64,4.58-.21,1.5-.46,3-.54,4.51-.03,.48,.73,.55,.83,.09,.58-2.55,.83-5.2,1.2-7.78,.38-2.6,.75-5.2,1.13-7.8,.76-5.17,1.54-10.33,2.32-15.49,.78-5.16,1.58-10.33,2.41-15.48,.7-4.37,1.03-9.81,4.91-12.69,2.13-1.58,4.84-1.6,7.25-.68,2.55,.97,4.59,2.8,6.59,4.61,.06,.06,.15-.04,.09-.1Z"/><path class="cls-12" d="M106.37,285.48s-6.44-2.32-9.62,2.38c-3.18,4.7,.62,16.66,29.95,23.4,0,0-.77-12.8-7.06-26.51-6.29-13.71-17.49-8.52-13.27,.73Z"/><g><path class="cls-19" d="M125.01,309.3c-.4-.83-.97-1.6-1.48-2.38-.49-.76-.99-1.51-1.49-2.26-.38-.56-.76-1.12-1.15-1.68,.03-.14,.04-.28,.05-.42,.03-.25,.07-.51,.1-.76,.07-.55,.15-1.1,.23-1.65,.08-.55,.17-1.09,.28-1.64,.11-.56,.16-1.21,.38-1.73,.04-.09-.12-.13-.13-.03-.04,.33-.17,.66-.26,.97-.07,.25-.13,.49-.2,.74-.14,.56-.28,1.11-.4,1.67-.12,.52-.21,1.04-.3,1.56-.04,.25-.08,.5-.11,.75-.52-.75-1.06-1.48-1.61-2.21-1.56-2.05-3.2-4.02-4.91-5.95,0-.02,.02-.03,.03-.05,.15-3.08,.08-6.13,.76-9.16,.02-.08-.11-.13-.12-.04-.64,2.84-1.28,5.83-1.1,8.77-.61-.68-1.23-1.36-1.85-2.03-1.43-1.54-2.88-3.05-4.37-4.53-.06-.06-.16,.03-.1,.09,2.47,2.66,4.82,5.43,7.1,8.25-1.78-.06-3.59,.07-5.36,.2-1.99,.15-3.96,.4-5.94,.67-.08,.01-.06,.14,.03,.13,1.96-.29,3.95-.45,5.93-.53,1.91-.08,3.82,0,5.73,0,1.23,1.53,2.46,3.07,3.66,4.63-.09,0-.18,0-.27,0-.45,0-.9-.02-1.35,0-.89,.02-1.78,.08-2.67,.15-1.82,.16-3.63,.41-5.42,.81-.08,.02-.06,.14,.03,.13,1.8-.2,3.61-.37,5.42-.44,.86-.03,1.73-.03,2.59-.03,.45,0,.9,0,1.35,0,.27,0,.51,.03,.74-.07,.79,1.02,1.58,2.05,2.36,3.08,.62,.82,1.24,1.65,1.84,2.48,.62,.85,1.17,1.78,1.86,2.58,.05,.06,.14-.01,.11-.08Z"/><path class="cls-19" d="M109.17,292.14c-1.03-.17-2.1-.15-3.14-.15-1.05,0-2.09,.03-3.14,.07-.1,0-.09,.14,0,.13,1.06-.08,2.12-.09,3.18-.08,1.03,.02,2.05,.11,3.08,.09,.03,0,.04-.05,0-.05Z"/><path class="cls-19" d="M118.38,294.5c.12-1,.25-2.01,.46-2.99,.02-.09-.11-.12-.13-.03-.15,.99-.34,1.96-.49,2.95-.07,.49-.14,.99-.2,1.48-.06,.45-.16,.94-.12,1.4,0,.09,.15,.1,.17,.01,.12-.44,.11-.94,.15-1.4,.05-.48,.1-.95,.15-1.43Z"/><path class="cls-19" d="M116.45,283.4c-.26,.97-.51,1.96-.69,2.95-.09,.5-.17,1.01-.24,1.52-.07,.48-.15,.99-.1,1.48,0,.04,.06,.04,.08,0,.14-.45,.17-.94,.23-1.41,.06-.49,.14-.97,.22-1.46,.18-1.02,.36-2.04,.62-3.04,.02-.08-.1-.13-.12-.04Z"/></g><path class="cls-19" d="M78.26,342.88c-.16-1.85-.34-3.69-.54-5.53-.39-3.65-.83-7.3-1.32-10.94-.49-3.63-.95-7.27-1.54-10.88-.27-1.66-.54-3.36-1.12-4.94-.49-1.36-1.31-2.6-2.74-3.09-3.45-1.19-5.78,2.39-7.17,4.92-.04,.08,.07,.13,.12,.06,.83-1.2,3.14-4.56,5.76-4.41,1.76,.11,3.17,1.35,4.02,5.74,2.11,10.94,4.01,33.15,4.23,34.6,.12,.77,.66,.74,.67-.09,.01-1.82-.2-3.63-.36-5.44Z"/><path class="cls-12" d="M64.77,311.05s3.02-10.65-3.65-5.32c-11.1,8.86-11.49,28.14-11.49,28.14,0,0,19.73-11.46,22.18-19.02,3.65-11.26-7.04-3.8-7.04-3.8Z"/><path class="cls-19" d="M68.51,316.28c-1.55,.31-3.12,.52-4.68,.74-.74,.11-1.48,.21-2.22,.31-.5,.07-1.01,.12-1.51,.18,1.47-2.02,2.95-4.04,4.36-6.11,.05-.08-.07-.16-.13-.1-1.17,1.19-2.26,2.48-3.3,3.8-.29-.82-.58-1.65-.87-2.47-.34-.95-.7-1.9-.94-2.89-.02-.08-.15-.04-.13,.04,.27,.98,.46,1.97,.72,2.95,.25,.95,.54,1.88,.87,2.8-.72,.94-1.42,1.9-2.09,2.87-.34-.96-.76-1.89-1.06-2.87-.02-.08-.15-.04-.13,.04,.35,1.08,.54,2.2,.88,3.29-.45,.66-.91,1.32-1.34,1.99-.8,1.23-1.55,2.48-2.28,3.75-.11,.07-.19,.16-.17,.3-1.25,2.16-2.43,4.34-3.6,6.55-.04,.08,.08,.14,.12,.06,1.17-2.18,2.47-4.3,3.83-6.39,0,0,.01,0,.01,0,.14-.08,.47-.09,.65-.12,.23-.05,.45-.1,.68-.15,.51-.11,1.02-.24,1.52-.37,1-.25,1.99-.48,3.01-.66,.08-.01,.05-.14-.04-.13-1.19,.23-2.39,.36-3.6,.5-.57,.07-1.14,.14-1.7,.23-.02,0-.05,0-.08,.01,.71-1.08,1.43-2.15,2.16-3.21,.72-1.04,1.45-2.07,2.19-3.09,.68-.1,1.36-.28,2.04-.41,.76-.15,1.53-.29,2.29-.45,1.53-.3,3.05-.64,4.58-.9,.08-.01,.05-.14-.04-.13Z"/><path class="cls-19" d="M56.65,317.33c-.09-.28-.18-.56-.27-.85-.19-.59-.33-1.18-.45-1.79-.02-.08-.14-.04-.13,.04,.13,.6,.27,1.2,.41,1.8,.14,.59,.28,1.21,.51,1.77,.06,.14,.27,.08,.23-.07-.08-.31-.2-.6-.3-.91Z"/><path class="cls-19" d="M70.52,313.81c-.9,.14-1.81,.2-2.71,.28-.91,.08-1.81,.21-2.71,.34-.05,0-.05,.08,0,.08,.91-.06,1.81-.13,2.71-.25,.9-.12,1.8-.25,2.71-.31,.09,0,.08-.14,0-.13Z"/><path class="cls-19" d="M92.78,329.4c-.35-7.84-.85-15.67-1.64-23.48-.39-3.89-.83-7.78-1.38-11.65-.54-3.79-1.19-7.58-2.25-11.27-.81-2.82-1.87-5.66-3.75-7.95-1.86-2.26-4.6-3.68-7.58-3.31-3.43,.42-6.19,2.59-8.58,4.93-2.68,2.63-5.14,5.51-7.62,8.33-.63,.71-1.25,1.43-1.87,2.15-.06,.06,.04,.16,.1,.09,2.43-2.79,4.95-5.5,7.59-8.09,2.44-2.39,4.95-5.01,8.33-6,1.57-.46,3.26-.59,4.84-.11,1.28,.38,2.39,1.14,3.31,2.09,1.9,1.98,2.97,4.66,3.73,7.25,2.11,7.21,2.86,14.76,3.65,22.21,.8,7.56,1.33,15.14,1.71,22.74,.38,7.63,.68,15.28,1.42,22.89,.09,.94,.21,1.88,.33,2.81,.08,.63,1.06,.63,1.01-.02-.62-7.86-.99-15.73-1.34-23.61Z"/><path class="cls-12" d="M67.17,277.53s4.48-8.29-.81-10.94c-5.29-2.66-23,17.11-28.17,46.01,0,0,28.6-12.65,38.31-25.26,9.71-12.61-1.3-15.38-9.33-9.8Z"/><g><path class="cls-19" d="M71.38,284.27c-3.21,0-6.42-.24-9.63-.22,.6-.69,1.2-1.38,1.81-2.07,.84-.95,1.8-1.87,2.51-2.92,.05-.07-.05-.16-.12-.11-.89,.7-1.66,1.61-2.43,2.44-.81,.85-1.61,1.71-2.4,2.58-1.23,1.33-2.43,2.68-3.63,4.03,0-.13,0-.26,0-.39,0-.56,0-1.13,0-1.69,0-1.09,.02-2.18,.03-3.27,.02-2.21,.02-4.43,.17-6.64,0-.08-.13-.08-.13,0-.15,2.22-.38,4.42-.49,6.64-.05,1.09-.08,2.18-.09,3.27,0,.56-.02,1.13-.01,1.69,0,.31,0,.63,.01,.95-.19,.21-.38,.42-.57,.63-2.57,2.93-5,5.96-7.38,9.05,0-.17-.03-.34-.04-.51-.03-.34-.07-.68-.11-1.02-.08-.74-.18-1.47-.29-2.21-.1-.69-.21-1.38-.33-2.07-.13-.77-.32-1.56-.38-2.34,0-.09-.15-.07-.13,.02,.16,.77,.2,1.58,.27,2.35,.07,.71,.13,1.41,.2,2.12,.06,.71,.13,1.42,.2,2.12,.03,.34,.07,.68,.1,1.02,.02,.17,.04,.34,.06,.51,.03,.22,.07,.25,.14,.4-.41,.53-.82,1.06-1.22,1.6-1.62,2.15-3.21,4.32-4.81,6.48-.05,.07,.04,.16,.1,.09,1.51-1.97,3.06-3.9,4.63-5.81,1.18,.05,2.38-.04,3.55-.06,1.24-.02,2.48-.03,3.72-.03,.09,0,.08-.13,0-.13-1.24,.02-2.48,.04-3.72,.05-1.13,0-2.28-.05-3.41,.01,1.38-1.68,2.78-3.35,4.18-5.02,.51-.61,1.02-1.21,1.54-1.82,.46,.1,.96,.05,1.44,.05,.56,0,1.13,0,1.69,0,1.06,0,2.11-.03,3.17-.04,2.18-.03,4.37-.11,6.55-.11,.09,0,.08-.13,0-.13-2.19-.03-4.37-.12-6.56-.18-1.06-.03-2.11-.06-3.17-.08-.56,0-1.13-.01-1.69-.02-.32,0-.65-.03-.98-.01,1.2-1.42,2.4-2.85,3.6-4.27,.03-.02,.05-.04,.07-.08,1.17-1.38,2.34-2.76,3.53-4.14,.16-.19,.33-.37,.49-.56,3.33,.1,6.66-.12,9.99-.05,.09,0,.08-.13,0-.13Z"/><path class="cls-19" d="M69.73,289.96c-.26,0-.52,0-.78,0-.08,0-.07,.12,0,.12,.26,0,.52,0,.78,0,.09,0,.08-.13,0-.13Z"/><path class="cls-19" d="M68,289.96c-1.03-.01-2.06-.04-3.09-.06-.51-.01-1.03-.03-1.54-.05-.46-.02-.99-.09-1.44,.02-.05,.01-.04,.08,0,.1,.45,.13,.98,.09,1.44,.1,.51,0,1.03,.02,1.54,.02,1.03,.01,2.06,.01,3.09,.01,.09,0,.08-.13,0-.13Z"/><path class="cls-19" d="M59.01,299.62c-2.09-.29-4.21-.59-6.32-.57-.03,0-.03,.04,0,.05,2.1,.2,4.21,.31,6.29,.65,.08,.01,.12-.12,.03-.13Z"/><path class="cls-19" d="M50.41,290.42c-.02-.18-.04-.37-.07-.55-.05-.41-.12-.83-.18-1.24-.12-.79-.26-1.57-.41-2.35-.01-.07-.14-.05-.13,.02,.1,.81,.19,1.62,.26,2.43,.04,.4,.07,.8,.1,1.19,.03,.36,0,.81,.16,1.13,.06,.12,.25,.07,.28-.04,.05-.2,.01-.39-.01-.59Z"/></g><path class="cls-19" d="M92.5,266.89c-1.02-1.91-2.33-4.42-4.88-4.26-2.11,.13-3.06,2.28-3.51,4.06-1.39,5.5-1.49,11.31-1.76,16.95-.57,11.92-1.09,23.85-1.16,35.79-.02,3.31,0,6.62,.02,9.92,.03,3.37,.02,6.77,.24,10.13,.02,.32,.49,.31,.5-.01,.02-2.89-.08-5.77-.1-8.66-.01-2.82,.01-5.63,.06-8.45,.09-5.7,.25-11.41,.46-17.11,.21-5.67,.46-11.33,.7-17,.12-2.83,.24-5.66,.37-8.49,.12-2.74,.24-5.49,.56-8.22,.18-1.53,.4-3.06,.72-4.56,.23-1.07,.55-2.23,1.32-3.06,1.01-1.09,2.53-1.01,3.73-.27,1.24,.77,1.99,2.04,2.64,3.3,.04,.08,.15,0,.11-.07Z"/><path class="cls-12" d="M91.81,265.98s-2.1-7.42,2.54-3.71c7.73,6.17,8,19.6,8,19.6,0,0-13.74-7.98-15.45-13.25-2.55-7.84,4.9-2.65,4.9-2.65Z"/><g><path class="cls-19" d="M99.46,276.37c-.13-.21-.26-.4-.39-.61,.03-.2,0-.43,0-.63,0-.32,0-.64,0-.96,.01-.63,.04-1.25,.07-1.88,0-.09-.13-.08-.13,0-.03,.61-.06,1.23-.07,1.84,0,.31-.02,.62-.03,.92,0,.12-.02,.26-.03,.4-.54-.84-1.09-1.67-1.67-2.48-.17-.24-.34-.47-.51-.7-.13-.79-.05-1.63-.04-2.42,.01-.86,.02-1.72,.05-2.59,0-.09-.13-.08-.13,0-.03,.9-.07,1.79-.12,2.69-.03,.63-.09,1.28-.05,1.92-1.33-1.8-2.73-3.54-4.16-5.27-.05-.06-.15,.02-.1,.08,.88,1.12,1.73,2.26,2.56,3.42-1.62-.38-3.26-.59-4.9-.83-.08-.01-.12,.12-.03,.13,1.74,.26,3.45,.7,5.16,1.08,.01,0,.02,0,.03,0,.66,.93,1.31,1.86,1.96,2.79,.26,.38,.52,.77,.78,1.15-.02,0-.05,0-.07,0-.18-.03-.36-.05-.53-.07-.38-.05-.76-.08-1.14-.11-.79-.06-1.59-.1-2.38-.15-.08,0-.08,.13,0,.13,.78,.02,1.56,.08,2.34,.16,.41,.04,.82,.1,1.23,.15,.18,.02,.36,.04,.54,.06,.05,0,.11,.01,.16,.02,.44,.65,.88,1.3,1.32,1.95,.78,1.15,1.47,2.38,2.3,3.48,.05,.07,.14,0,.11-.07-.58-1.25-1.38-2.44-2.1-3.61Z"/><path class="cls-19" d="M96.04,267.99c0-.29,0-.58,0-.87,0-.6,0-1.22,.07-1.82,.01-.1-.13-.11-.13-.01,0,.6-.07,1.2-.09,1.8-.01,.3-.01,.6-.02,.9,0,.14,0,.28,0,.42,0,.14-.02,.3,.03,.43,.02,.06,.1,.05,.11,0,.04-.13,.02-.27,.02-.4,0-.15,0-.3,0-.45Z"/><path class="cls-19" d="M94.34,271.07c-.51-.09-1.03-.11-1.55-.16-.57-.05-1.13-.1-1.7-.17-.09-.01-.11,.12-.01,.13,1.08,.07,2.16,.26,3.25,.3,.06,0,.07-.09,.01-.1Z"/></g><path class="cls-19" d="M98.66,271.11c.04,.06,.01,.22,.01,.29v.24c0,.17,0,.35,0,.52,0,.17,0,.35,0,.52,0,.14-.04,.33,.03,.45,0,.02,.04,.02,.05,0,.03-.07,.03-.14,.03-.22,0-.08,0-.16,0-.24,0-.17,0-.35,0-.52,0-.17,0-.35,0-.52v-.24c0-.07-.03-.23,.01-.29,.08-.12-.2-.12-.11,0Z"/><path class="cls-19" d="M92.82,306.47c-2.89-2.17-5.49-5.29-9.37-5.44-3.21-.13-5.46,2.29-6.74,4.98-.68,1.42-1.14,2.92-1.57,4.43-.58,2.03-1.13,4.07-1.64,6.12-1.01,4.03-1.87,8.1-2.57,12.19-.39,2.28-.75,4.57-1.04,6.87-.29,2.32-.67,4.7-.67,7.03,0,.41,.63,.49,.72,.08,.39-1.92,.56-3.91,.84-5.85,.28-1.95,.58-3.9,.91-5.85,.66-3.89,1.42-7.77,2.3-11.62,.83-3.64,1.64-7.33,2.82-10.87,.84-2.54,2.19-5.5,4.93-6.41,4.17-1.39,7.96,2.14,11.01,4.43,.07,.05,.16-.04,.09-.1Z"/><path class="cls-12" d="M89.83,304.4s-2.66-7.61,1.19-9.1c5.77-2.24,20.89,14.79,17.93,40.87,0,0-11.68-6.43-20.3-13.67-8.62-7.24-10.83-16.69-7.03-19.13,3.8-2.44,8.21,1.03,8.21,1.03Z"/><g><path class="cls-19" d="M107.2,330.58c-.34-.92-.93-1.78-1.4-2.63-.49-.89-.99-1.78-1.51-2.66-1-1.72-2-3.44-3.03-5.14-.17-.28-.34-.55-.51-.82,.02-.1,.04-.2,.06-.31l.17-.75c.13-.57,.23-1.14,.33-1.71,.21-1.12,.4-2.25,.7-3.34,.02-.08-.11-.11-.13-.02-.24,1.12-.59,2.21-.92,3.3-.16,.54-.34,1.07-.48,1.62-.05,.19-.1,.37-.15,.56-1.24-2.03-2.5-4.06-3.87-6.02,.11-.26,.1-.54,.14-.84,.04-.38,.09-.76,.13-1.14,.1-.86,.2-1.72,.33-2.57,.25-1.68,.5-3.35,.91-5,.02-.08-.11-.11-.13-.02-.42,1.64-.87,3.28-1.18,4.95-.15,.82-.3,1.64-.41,2.46-.05,.41-.1,.83-.14,1.24-.01,.12-.03,.25-.05,.37-.42-.59-.84-1.18-1.28-1.76-1.33-1.75-2.72-3.47-4.11-5.17-.05-.07-.16,0-.11,.08,2.45,3,4.52,6.31,6.57,9.59,.38,.61,.76,1.23,1.14,1.84-.13-.02-.25-.03-.38-.05-.49-.06-.98-.09-1.47-.14-.98-.09-1.97-.18-2.95-.26-1.97-.16-3.94-.28-5.9-.49-.08,0-.11,.12-.02,.13,1.99,.23,3.97,.55,5.95,.83,.97,.14,1.95,.27,2.92,.39,.67,.09,1.52,.29,2.25,.23,.77,1.26,1.55,2.51,2.32,3.77-.17-.02-.35-.02-.52-.02-.33,0-.66,0-.98,0-.61,0-1.22,0-1.83,0-1.27,0-2.53,.03-3.8,.02-.09,0-.07,.13,.01,.13,1.28,.02,2.56,.08,3.85,.15,.61,.03,1.22,.07,1.82,.11,.3,.02,.61,.05,.91,.07,.27,.02,.55,.07,.8-.03,.66,1.07,1.32,2.13,1.97,3.2,.6,.99,1.21,1.97,1.84,2.94,.63,.98,1.21,2.1,1.98,2.97,.05,.06,.16,.02,.13-.07Z"/><path class="cls-19" d="M101.64,309.5c-.09,.83-.32,1.67-.52,2.48-.21,.85-.46,1.68-.73,2.51-.04,.11,.12,.17,.16,.05,.26-.82,.49-1.65,.69-2.49,.2-.84,.33-1.69,.54-2.53,.02-.08-.12-.11-.13-.02Z"/><path class="cls-19" d="M93.06,314.59c-.18-.18-.39-.2-.64-.24-.37-.05-.74-.1-1.1-.15-.68-.09-1.37-.17-2.05-.25-1.42-.17-2.85-.3-4.27-.48-.08-.01-.11,.12-.02,.13,1.34,.16,2.68,.37,4.02,.54,.66,.09,1.31,.18,1.97,.26,.32,.04,.63,.07,.95,.11,.35,.04,.76,.03,1.08,.19,.06,.03,.11-.05,.06-.1Z"/><path class="cls-19" d="M101.62,326.06c-.67-.06-1.35-.08-2.02-.1-.34-.01-.68-.02-1.02-.03-.16,0-.33-.01-.49-.02-.21,0-.44,.01-.64-.04-.09-.02-.1,.15,0,.13,.19-.03,.41,0,.6,.02,.18,.01,.35,.02,.53,.03l1.02,.06c.67,.04,1.35,.08,2.02,.08,.08,0,.09-.14,0-.14Z"/><path class="cls-19" d="M105.73,323.14c.08-.38,.15-.76,.22-1.15,.14-.75,.28-1.5,.41-2.26,.02-.08-.11-.11-.13-.02-.17,.73-.33,1.46-.5,2.2-.08,.37-.16,.73-.24,1.1-.04,.17-.07,.34-.11,.51-.04,.18-.09,.36-.06,.54,.01,.06,.1,.11,.15,.05,.18-.27,.19-.65,.25-.96Z"/></g><polygon class="cls-3" points="100.06 345.62 99.41 356.4 97.49 388.23 64.85 388.23 62.93 356.4 62.28 345.62 100.06 345.62"/><polygon class="cls-22" points="100.06 345.62 99.41 356.4 62.93 356.4 62.28 345.62 100.06 345.62"/><rect class="cls-21" x="59.27" y="338" width="43.79" height="10.79"/></g><g id="Shadow"><ellipse class="cls-2" cx="250" cy="435.47" rx="180.13" ry="15.73"/></g><g id="Screens"><rect class="cls-21" x="161" y="55.88" width="168.83" height="168.48"/><rect class="cls-19" x="161" y="55.88" width="168.94" height="10.18"/><g><path class="cls-17" d="M169.03,60.97c0,1.17-.95,2.12-2.12,2.12s-2.12-.95-2.12-2.12,.95-2.12,2.12-2.12,2.12,.95,2.12,2.12Z"/><path class="cls-5" d="M177.67,60.97c0,1.17-.95,2.12-2.12,2.12s-2.12-.95-2.12-2.12,.95-2.12,2.12-2.12,2.12,.95,2.12,2.12Z"/><path class="cls-12" d="M186.31,60.97c0,1.17-.95,2.12-2.12,2.12s-2.12-.95-2.12-2.12,.95-2.12,2.12-2.12,2.12,.95,2.12,2.12Z"/></g><rect class="cls-5" x="183.74" y="83.3" width="123.45" height="123.45"/><g><path class="cls-12" d="M236.99,155.64c-1.62,1.62-3.57,2.43-5.84,2.43-2.53,0-4.59-.8-6.18-2.39-1.59-1.59-2.39-3.6-2.39-6.03s.81-4.44,2.43-6.03c1.62-1.59,3.67-2.39,6.15-2.39,2.28,0,4.22,.8,5.84,2.39,1.62,1.59,2.43,3.6,2.43,6.03s-.81,4.37-2.43,5.99Z"/><path class="cls-5" d="M233.61,152.26c-.71,.71-1.56,1.06-2.55,1.06-1.1,0-2-.35-2.7-1.04-.69-.7-1.04-1.57-1.04-2.63s.35-1.94,1.06-2.63c.71-.7,1.6-1.04,2.68-1.04,.99,0,1.84,.35,2.55,1.04,.71,.7,1.06,1.57,1.06,2.63s-.35,1.91-1.06,2.62Z"/><path class="cls-12" d="M261.49,155.64c-1.62,1.62-3.57,2.43-5.84,2.43-2.53,0-4.59-.8-6.18-2.39-1.59-1.59-2.39-3.6-2.39-6.03s.81-4.44,2.43-6.03c1.62-1.59,3.67-2.39,6.15-2.39,2.28,0,4.22,.8,5.84,2.39,1.62,1.59,2.43,3.6,2.43,6.03s-.81,4.37-2.43,5.99Z"/><path class="cls-12" d="M283.5,155.66c-2.77,5.16-6.81,9.26-12.1,12.29-5.29,3.03-11.72,4.55-19.29,4.55h-12.99c-7.57,0-14-1.52-19.29-4.55-5.29-3.03-9.32-7.13-12.1-12.29-2.77-5.16-4.16-10.98-4.16-17.46s1.37-12.47,4.12-17.66c2.75-5.19,6.77-9.27,12.06-12.25,5.29-2.98,11.75-4.47,19.37-4.47h12.91c7.36,0,13.7,1.49,19.02,4.47,5.32,2.98,9.41,7.08,12.29,12.29,2.88,5.21,4.32,11.09,4.32,17.62s-1.39,12.3-4.16,17.46Zm-9.27-29.6c-2.2-3.46-5.3-6.15-9.31-8.06-4.01-1.91-8.72-2.87-14.15-2.87h-10.39c-5.53,0-10.29,.92-14.27,2.75-3.98,1.83-7.06,4.48-9.23,7.95-2.17,3.46-3.26,7.6-3.26,12.41s1.07,8.84,3.22,12.25c2.14,3.41,5.22,6.05,9.23,7.91,4.01,1.86,8.77,2.79,14.31,2.79h10.39c5.43,0,10.13-.96,14.11-2.87,3.98-1.91,7.08-4.59,9.31-8.03,2.22-3.44,3.33-7.46,3.33-12.06s-1.1-8.71-3.3-12.17Z"/><path class="cls-5" d="M239.08,168.46c-6.83,0-12.65-1.35-17.3-4.01-4.66-2.67-8.11-6.17-10.54-10.69-2.44-4.54-3.68-9.78-3.68-15.56s1.23-11.21,3.65-15.78c2.4-4.53,5.82-8,10.46-10.61,4.65-2.62,10.51-3.95,17.4-3.95h13c6.64,0,12.38,1.33,17.06,3.96,4.69,2.63,8.19,6.13,10.72,10.71,2.53,4.58,3.81,9.86,3.81,15.67s-1.24,11.02-3.68,15.56c-2.43,4.52-5.88,8.02-10.54,10.69-4.64,2.66-10.46,4.01-17.3,4.01h-13.08Zm1.27-57.38c-6.17,0-11.61,1.07-16.17,3.17-4.76,2.19-8.5,5.43-11.13,9.62-2.61,4.16-3.93,9.13-3.93,14.77s1.31,10.51,3.9,14.62c2.6,4.13,6.33,7.35,11.11,9.57,4.58,2.13,10.04,3.21,16.21,3.21h10.47c6.09,0,11.49-1.11,16.07-3.31,4.71-2.26,8.45-5.5,11.11-9.62,2.68-4.15,4.04-9.02,4.04-14.47s-1.34-10.39-3.98-14.55c-2.64-4.16-6.39-7.42-11.14-9.69-4.6-2.19-10.01-3.31-16.1-3.31h-10.47Z"/><path class="cls-12" d="M225.19,170.07h11.31v21.01h-11.31v-21.01Z"/><path class="cls-12" d="M255.09,170.07h11.31v21.01h-11.31v-21.01Z"/><path class="cls-5" d="M259.94,174.92h1.62v11.31h-1.62v-11.31Z"/><path class="cls-5" d="M230.04,174.92h1.62v11.31h-1.62v-11.31Z"/><path class="cls-5" d="M258.11,152.26c-.71,.71-1.56,1.06-2.55,1.06-1.1,0-2-.35-2.7-1.04-.69-.7-1.04-1.57-1.04-2.63s.35-1.94,1.06-2.63c.71-.7,1.6-1.04,2.68-1.04,.99,0,1.84,.35,2.55,1.04,.71,.7,1.06,1.57,1.06,2.63s-.35,1.91-1.06,2.62Z"/></g><rect class="cls-20" x="116.11" y="64.27" width="36.63" height="137.74"/><g><rect class="cls-2" x="118.94" y="65.44" width=".3" height="3.2" transform="translate(-12.53 103.84) rotate(-45)"/><rect class="cls-2" x="117.48" y="66.89" width="3.2" height=".3" transform="translate(-12.53 103.84) rotate(-45)"/></g><g><g><rect class="cls-2" x="148.79" y="66.66" width=".3" height="1.9" transform="translate(-4.17 125.15) rotate(-45.01)"/><rect class="cls-2" x="147.99" y="66.33" width="1.9" height=".3" transform="translate(-3.39 124.79) rotate(-45)"/></g><g><rect class="cls-2" x="150.27" y="66.66" width=".3" height="1.9" transform="translate(-3.75 126.17) rotate(-45)"/><rect class="cls-2" x="149.47" y="66.33" width="1.9" height=".3" transform="translate(-2.95 125.83) rotate(-45)"/></g></g><path class="cls-2" d="M126.23,87.2l-1.57-3.8-2.81,2.18v-12.22l8.54,8.63-3.58,.53,1.57,3.78-2.15,.89Zm-1.32-4.76l1.64,3.97,1.04-.43-1.63-3.94,3.17-.47-6.69-6.76v9.54l2.47-1.91Z"/><polygon class="cls-2" points="145.72 82.28 147.32 86.14 145.72 86.8 144.12 82.92 141.48 84.96 141.48 74.08 149.09 81.78 145.72 82.28"/><g><rect class="cls-2" x="119.9" y="101.82" width="12.1" height=".9" transform="translate(-32.13 138.79) rotate(-52.08)"/><polygon class="cls-2" points="125.24 98.43 123.42 98.76 123.01 100.68 122.61 98.76 120.79 98.42 122.6 97.98 123.01 96.17 123.43 97.98 125.24 98.43"/><polygon class="cls-2" points="129.27 95.39 128.21 95.59 127.97 96.71 127.73 95.59 126.66 95.39 127.72 95.13 127.97 94.07 128.21 95.13 129.27 95.39"/><polygon class="cls-2" points="130.53 101.43 129.92 101.55 129.79 102.19 129.65 101.55 129.04 101.43 129.65 101.28 129.79 100.68 129.93 101.28 130.53 101.43"/></g><rect class="cls-2" x="137.56" y="135.97" width="12.1" height=".9" transform="translate(-52.26 165.88) rotate(-52.08)"/><g><polygon class="cls-2" points="145.72 103.95 147.32 107.81 145.72 108.47 144.12 104.59 141.48 106.63 141.48 95.75 149.09 103.45 145.72 103.95"/><path class="cls-2" d="M140.74,102.47c-1.57,0-2.79-.54-3.22-1.37-.63-1.24-.15-3.85,3.74-5.98,3.1-1.69,6.19-1,6.95,.23,.33,.53,.37,1.27,.12,2.08-.42,1.36-1.76,3.2-4.28,4.31h0c-1.17,.51-2.31,.74-3.31,.74Zm4.33-7.77c-1.05,0-2.28,.27-3.52,.94-3.5,1.91-4,4.19-3.49,5.18,.5,.99,2.94,1.6,5.76,.36h0c2.34-1.03,3.59-2.77,3.95-3.94,.2-.64,.18-1.2-.06-1.58-.34-.55-1.34-.96-2.63-.96Z"/><path class="cls-2" d="M139.04,103.24c-.42,0-.84-.17-1.14-.57h0c-.33-.44-.39-.93-.17-1.38,.26-.53,.9-.92,1.55-.93,.55,0,1,.25,1.24,.7,.43,.8,.03,1.53-.55,1.9-.27,.17-.6,.28-.93,.28Zm-.67-.93c.33,.45,.89,.39,1.27,.15,.34-.21,.6-.62,.34-1.11-.17-.33-.49-.4-.7-.39-.42,0-.86,.26-1.02,.59-.12,.24-.08,.49,.12,.75h0Z"/><path class="cls-2" d="M140.73,104.84l-.36-.48c.18-.13,.39-.33,.36-.53-.05-.35-.71-.72-1.02-.84l.22-.56c.13,.05,1.29,.53,1.4,1.32,.05,.39-.15,.76-.59,1.09Z"/></g><g><path class="cls-2" d="M122.12,118.1s2.15-2.07,5.89-3.12l1.9,1.9c-1.04,3.74-3.12,5.89-3.12,5.89-3.05-.86-5.55,1.53-5.55,1.53l-.2-.2,3.87-3.87c.33,.2,.76,.16,1.04-.12,.33-.33,.33-.86,0-1.19-.33-.33-.86-.33-1.19,0-.29,.29-.32,.72-.12,1.04l-3.87,3.87-.2-.2s2.4-2.5,1.53-5.55Z"/><rect class="cls-2" x="127.33" y="114.74" width="3.98" height="1.67" transform="translate(139.04 288.75) rotate(-135)"/></g><rect class="cls-19" x="135.62" y="111.71" width="14.66" height="13.69"/><g><g><path class="cls-2" d="M140.93,118.1s2.15-2.07,5.89-3.12l1.9,1.9c-1.04,3.74-3.12,5.89-3.12,5.89-3.05-.86-5.55,1.53-5.55,1.53l-.2-.2,3.87-3.87c.33,.2,.76,.16,1.04-.12,.33-.33,.33-.86,0-1.19-.33-.33-.86-.33-1.19,0-.29,.29-.32,.72-.12,1.04l-3.87,3.87-.2-.2s2.4-2.5,1.53-5.55Z"/><rect class="cls-2" x="146.14" y="114.74" width="3.98" height="1.67" transform="translate(171.15 302.05) rotate(-135)"/></g><path class="cls-2" d="M139.59,124.14c-.9,0-1.64-.37-2.05-1.01-.42-.67-.68-1.96,.45-4.31,.4-.84,.46-1.53,.17-2.05-.49-.89-1.84-1.05-1.85-1.05l.07-.6c.07,0,1.67,.2,2.31,1.36,.39,.7,.33,1.57-.16,2.59-1.01,2.11-.82,3.19-.48,3.73,.4,.64,1.14,.73,1.54,.73v.6Z"/></g><path class="cls-2" d="M129.53,130.86v2.44h-.81c-.19,0-.3-.1-.34-.27-.01-.09-.04-.27-.07-.59h-2.1v7.33c.17,.03,.31,.06,.41,.07,.1,.01,.17,.04,.21,.04s.07,.01,.09,.01c.24,.06,.37,.2,.37,.44v.84h-4.09v-.84c0-.24,.11-.39,.36-.44,.01,0,.04-.01,.09-.01s.11-.03,.21-.04c.1-.01,.24-.04,.41-.07v-7.35h-2.1c-.03,.31-.06,.51-.07,.6-.04,.17-.14,.27-.33,.27h-.83v-2.44h8.59Z"/><path class="cls-2" d="M130.98,161.1h-10.49v-10.48h10.49v10.48Zm-9.59-.9h8.69v-8.69h-8.69v8.69Z"/><g><path class="cls-2" d="M147.51,192.36h-9.05v-8.1h9.05v8.1Zm-8.15-.9h7.26v-6.31h-7.26v6.31Z"/><path class="cls-2" d="M142.54,194.75h-6.31v-5.68h6.31v5.68Zm-5.41-.9h4.51v-3.88h-4.51v3.88Z"/><rect class="cls-2" x="142.97" y="186.98" width="3.23" height=".6" transform="translate(-90.08 157.12) rotate(-45.01)"/><polygon class="cls-2" points="146.16 187.49 145.56 187.49 145.56 186.29 144.41 186.29 144.41 185.7 146.16 185.7 146.16 187.49"/></g><g><path class="cls-2" d="M148.01,161.1h-10.49v-10.49h4.9c.26-1.96,1.91-3.44,3.94-3.44,2.19,0,3.98,1.78,3.98,3.98,0,1.56-.92,2.98-2.32,3.62v6.33Zm-9.59-.9h8.69v-6.05l.29-.11c1.21-.45,2.03-1.61,2.03-2.9,0-1.7-1.38-3.08-3.08-3.08s-3.04,1.32-3.08,3.01v.44h-4.86v8.69Z"/><path class="cls-2" d="M144.15,153.55c-1.56-.26-1.78,1.39-1.81,2.03-.02,.64-.79,1.29-1.26,1.39,0,0,2.43,.67,3.64-.57,1.14-1.16,.47-2.67-.57-2.85Z"/><path class="cls-2" d="M149.5,148.52l-3.92,5.54c-.25-.49-.69-.85-1.22-.93-.1-.01-.19-.02-.27-.02l3.25-4.59h2.16Z"/></g><g><rect class="cls-2" x="123.16" y="169.94" width="3.9" height="7.94" transform="translate(159.62 -37.53) rotate(45)"/><rect class="cls-2" x="127.02" y="169.2" width="3.9" height="1.68" transform="translate(158.02 -41.39) rotate(45)"/><polygon class="cls-2" points="120.68 178.34 120.9 175.41 121.5 175.45 121.33 177.69 123.56 177.52 123.61 178.12 120.68 178.34"/></g><g><g><path class="cls-2" d="M146.04,173.67c-1.17,0-2.11-.95-2.11-2.11s.95-2.11,2.11-2.11,2.11,.95,2.11,2.11-.95,2.11-2.11,2.11Zm0-3.33c-.67,0-1.22,.55-1.22,1.22s.55,1.22,1.22,1.22,1.21-.55,1.21-1.22-.54-1.22-1.21-1.22Z"/><path class="cls-2" d="M136.32,176.98l8.29-4.57,1.42,.81s-6.04,3.69-7.11,4.08c-1.07,.39-2.61-.32-2.61-.32Z"/></g><g><path class="cls-2" d="M146.01,178.38c-1.17,0-2.11-.95-2.11-2.11s.95-2.11,2.11-2.11,2.11,.95,2.11,2.11-.95,2.11-2.11,2.11Zm0-3.33c-.67,0-1.22,.55-1.22,1.22s.55,1.21,1.22,1.21,1.22-.54,1.22-1.21-.55-1.22-1.22-1.22Z"/><path class="cls-2" d="M136.29,170.84l8.29,4.57,1.42-.81s-6.04-3.69-7.11-4.08c-1.07-.39-2.61,.32-2.61,.32Z"/></g></g><g><path class="cls-2" d="M119.68,195.08v-6.25l3.99,3.12-3.99,3.12Zm.72-4.77v3.28l2.09-1.64-2.09-1.64Z"/><polygon class="cls-2" points="128.01 188.93 128.01 194.99 124.15 191.96 128.01 188.93"/><path class="cls-2" d="M124.05,195.28h-.24v-.96h.24v.96Zm0-1.92h-.24v-.96h.24v.96Zm0-1.92h-.24v-.96h.24v.96Zm0-1.92h-.24v-.96h.24v.96Z"/></g><rect class="cls-20" x="333.98" y="68.24" width="78.81" height="46.76"/><g><polygon class="cls-2" points="337.19 67.09 335.37 65.27 335.54 65.1 337.36 66.92 337.19 67.09"/><polygon class="cls-2" points="335.54 67.09 335.37 66.92 337.19 65.1 337.36 65.27 335.54 67.09"/></g><g><g><rect class="cls-2" x="408.48" y="70.75" width=".31" height="1.99" transform="translate(68.92 309.9) rotate(-44.99)"/><rect class="cls-2" x="407.64" y="70.4" width="1.98" height=".31" transform="translate(69.8 309.61) rotate(-45)"/></g><g><rect class="cls-2" x="410.03" y="70.75" width=".31" height="1.99" transform="translate(69.37 310.99) rotate(-44.99)"/><rect class="cls-2" x="409.19" y="70.4" width="1.98" height=".31" transform="translate(70.31 310.79) rotate(-45.01)"/></g></g><rect class="cls-2" x="347.9" y="75.69" width=".31" height="30.72"/><rect class="cls-2" x="359.24" y="75.69" width=".31" height="30.72"/><g><path class="cls-2" d="M342.29,78.52c-2.27,0-3.28,1.86-3.28,1.86,0,0,1.1,1.87,3.28,1.87s3.33-1.87,3.33-1.87c0,0-1.07-1.86-3.33-1.86Zm0,3.39c-.85,0-1.53-.68-1.53-1.52s.68-1.53,1.53-1.53,1.52,.68,1.52,1.53-.68,1.52-1.52,1.52Z"/><path class="cls-2" d="M343.47,80.38c0,.65-.53,1.18-1.18,1.18s-1.18-.53-1.18-1.18,.53-1.18,1.18-1.18,1.18,.53,1.18,1.18Z"/></g><g><path class="cls-2" d="M342.29,89.21c-2.27,0-3.28,1.86-3.28,1.86,0,0,1.1,1.87,3.28,1.87s3.33-1.87,3.33-1.87c0,0-1.07-1.86-3.33-1.86Zm0,3.39c-.85,0-1.53-.68-1.53-1.52s.68-1.53,1.53-1.53,1.52,.68,1.52,1.53-.68,1.52-1.52,1.52Z"/><path class="cls-2" d="M343.47,91.07c0,.65-.53,1.18-1.18,1.18s-1.18-.53-1.18-1.18,.53-1.18,1.18-1.18,1.18,.53,1.18,1.18Z"/></g><g><path class="cls-2" d="M342.29,99.42c-2.27,0-3.28,1.86-3.28,1.86,0,0,1.1,1.87,3.28,1.87s3.33-1.87,3.33-1.87c0,0-1.07-1.86-3.33-1.86Zm0,3.39c-.85,0-1.53-.68-1.53-1.52s.68-1.53,1.53-1.53,1.52,.68,1.52,1.53-.68,1.52-1.52,1.52Z"/><path class="cls-2" d="M343.47,101.28c0,.65-.53,1.18-1.18,1.18s-1.18-.53-1.18-1.18,.53-1.18,1.18-1.18,1.18,.53,1.18,1.18Z"/></g><rect class="cls-2" x="337.23" y="85.79" width="72.3" height=".31"/><rect class="cls-2" x="337.23" y="96.04" width="72.3" height=".31"/><g><path class="cls-2" d="M367.94,82.61h-.01c-.1,0-.18-.08-.18-.18v-4.87c0-.1,.08-.18,.18-.18,.1,0,.19,.08,.19,.18v4.68h2.5c.1,0,.19,.08,.19,.19,0,.1-.08,.18-.19,.18h-2.67Z"/><path class="cls-2" d="M374.93,79.13v3.3c0,.1-.08,.18-.18,.18s-.18-.08-.18-.18v-.54c-.31,.43-.81,.72-1.37,.72-.96,0-1.73-.83-1.73-1.83s.77-1.83,1.73-1.83c.56,0,1.06,.28,1.37,.72v-.54c0-.1,.08-.18,.18-.18s.18,.07,.18,.18Zm-.36,1.65c0-.82-.62-1.48-1.37-1.48s-1.37,.66-1.37,1.48,.63,1.47,1.37,1.47,1.37-.65,1.37-1.47Z"/><path class="cls-2" d="M376.41,79.12c0-.1,.08-.17,.17-.17,.1,0,.19,.07,.19,.17v1.98c0,.63,.5,1.13,1.12,1.13s1.13-.5,1.13-1.13v-1.98s0-.07,.03-.09c0,0,0-.01,0-.02,0,0,0,0,.01,0,.01-.02,.04-.04,.07-.04h.01s.01,0,.02,0h.05s.06,.02,.09,.04c.01,.01,.04,.04,.05,.06,.01,.02,.02,.05,.02,.07v3.19c0,.96-.78,1.72-1.74,1.72-.27,0-.52-.07-.75-.17-.08-.05-.12-.16-.07-.24,.04-.09,.14-.11,.23-.09,.18,.09,.39,.14,.6,.14,.76,0,1.37-.6,1.38-1.36v-.24c-.28,.31-.68,.52-1.13,.52-.81,0-1.48-.67-1.48-1.49v-1.98Z"/><path class="cls-2" d="M380.62,80.78c0-1.01,.79-1.84,1.78-1.84s1.69,.75,1.76,1.7h0v.03c0,.1-.08,.16-.18,.16h-3c.04,.8,.66,1.4,1.42,1.4,.48,0,.93-.25,1.18-.66,.05-.09,.16-.1,.24-.06,.08,.06,.11,.16,.06,.25-.31,.5-.86,.83-1.48,.83-.98,0-1.78-.82-1.78-1.82Zm.38-.29h2.77c-.12-.69-.7-1.19-1.37-1.19s-1.26,.49-1.39,1.19Z"/><path class="cls-2" d="M385.27,79.14c0-.1,.08-.18,.19-.18,.09,0,.17,.07,.17,.18v.81s.03-.06,.05-.09c.28-.43,.76-.9,1.46-.9,.1,0,.18,.07,.18,.18,0,.1-.08,.18-.18,.18-.48,0-.81,.27-1.06,.6-.25,.33-.39,.7-.44,.85-.02,.03-.02,.04-.02,.06v1.6c0,.1-.08,.18-.17,.18-.1,0-.19-.07-.19-.18v-3.29Z"/><path class="cls-2" d="M391.35,77.91l-.74,.43s-.06,.03-.09,.03c-.07,0-.13-.04-.16-.09-.05-.1-.02-.2,.07-.25l1.01-.61c.08-.04,.2-.01,.25,.07,.02,.04,.03,.09,.02,.13v4.8c0,.1-.07,.18-.18,.18-.1,0-.18-.08-.18-.18v-4.51Z"/></g><g><path class="cls-2" d="M367.94,93.37h-.01c-.1,0-.18-.08-.18-.18v-4.87c0-.1,.08-.18,.18-.18,.1,0,.19,.08,.19,.18v4.68h2.5c.1,0,.19,.08,.19,.19,0,.1-.08,.18-.19,.18h-2.67Z"/><path class="cls-2" d="M374.93,89.89v3.3c0,.1-.08,.18-.18,.18s-.18-.08-.18-.18v-.54c-.31,.43-.81,.72-1.37,.72-.96,0-1.73-.83-1.73-1.83s.77-1.83,1.73-1.83c.56,0,1.06,.28,1.37,.72v-.54c0-.1,.08-.18,.18-.18s.18,.07,.18,.18Zm-.36,1.65c0-.82-.62-1.48-1.37-1.48s-1.37,.66-1.37,1.48,.63,1.47,1.37,1.47,1.37-.65,1.37-1.47Z"/><path class="cls-2" d="M376.41,89.88c0-.1,.08-.17,.17-.17,.1,0,.19,.07,.19,.17v1.98c0,.63,.5,1.13,1.12,1.13s1.13-.5,1.13-1.13v-1.98s0-.07,.03-.09c0,0,0-.01,0-.02,0,0,0,0,.01,0,.01-.02,.04-.04,.07-.04h.01s.01,0,.02,0h.05s.06,.02,.09,.04c.01,.01,.04,.04,.05,.06,.01,.02,.02,.05,.02,.07v3.19c0,.96-.78,1.72-1.74,1.72-.27,0-.52-.07-.75-.17-.08-.05-.12-.16-.07-.24,.04-.09,.14-.11,.23-.09,.18,.09,.39,.14,.6,.14,.76,0,1.37-.6,1.38-1.36v-.24c-.28,.31-.68,.52-1.13,.52-.81,0-1.48-.67-1.48-1.49v-1.98Z"/><path class="cls-2" d="M380.62,91.55c0-1.02,.79-1.84,1.78-1.84s1.69,.75,1.76,1.7h0v.03c0,.1-.08,.16-.18,.16h-3c.04,.8,.66,1.4,1.42,1.4,.48,0,.93-.25,1.18-.66,.05-.09,.16-.1,.24-.06,.08,.06,.11,.16,.06,.25-.31,.5-.86,.83-1.48,.83-.98,0-1.78-.82-1.78-1.82Zm.38-.29h2.77c-.12-.69-.7-1.19-1.37-1.19s-1.26,.49-1.39,1.19Z"/><path class="cls-2" d="M385.27,89.9c0-.1,.08-.18,.19-.18,.09,0,.17,.07,.17,.18v.81s.03-.06,.05-.09c.28-.43,.76-.9,1.46-.9,.1,0,.18,.07,.18,.18,0,.1-.08,.18-.18,.18-.48,0-.81,.27-1.06,.6-.25,.33-.39,.7-.44,.85-.02,.03-.02,.04-.02,.06v1.6c0,.1-.08,.18-.17,.18-.1,0-.19-.07-.19-.18v-3.29Z"/><path class="cls-2" d="M390.49,93.05l2.44-2.2c.29-.27,.45-.63,.45-1,0-.32-.12-.64-.35-.9-.26-.29-.63-.44-.99-.44-.33,0-.65,.11-.91,.34l-.25,.23c-.07,.08-.19,.07-.25,0-.07-.07-.07-.19,0-.25l.25-.24c.33-.29,.75-.44,1.16-.44,.45,0,.92,.18,1.25,.56,.31,.33,.45,.74,.45,1.14,0,.46-.19,.93-.56,1.27l-2.09,1.89h2.47c.1,0,.18,.08,.18,.19,0,.1-.08,.18-.18,.18h-2.94c-.05,0-.1-.01-.13-.05-.07-.08-.07-.19,0-.27Z"/></g><g><path class="cls-2" d="M367.94,104.13h-.01c-.1,0-.18-.08-.18-.18v-4.87c0-.1,.08-.18,.18-.18,.1,0,.19,.08,.19,.18v4.68h2.5c.1,0,.19,.08,.19,.19,0,.1-.08,.18-.19,.18h-2.67Z"/><path class="cls-2" d="M374.93,100.65v3.3c0,.1-.08,.18-.18,.18s-.18-.08-.18-.18v-.54c-.31,.43-.81,.72-1.37,.72-.96,0-1.73-.83-1.73-1.83s.77-1.83,1.73-1.83c.56,0,1.06,.28,1.37,.72v-.54c0-.1,.08-.18,.18-.18s.18,.07,.18,.18Zm-.36,1.65c0-.82-.62-1.48-1.37-1.48s-1.37,.66-1.37,1.48,.63,1.47,1.37,1.47,1.37-.65,1.37-1.47Z"/><path class="cls-2" d="M376.41,100.64c0-.1,.08-.17,.17-.17,.1,0,.19,.07,.19,.17v1.98c0,.63,.5,1.13,1.12,1.13s1.13-.5,1.13-1.13v-1.98s0-.07,.03-.09c0,0,0-.01,0-.02,0,0,0,0,.01,0,.01-.02,.04-.04,.07-.04h.01s.01,0,.02,0h.05s.06,.02,.09,.04c.01,.01,.04,.04,.05,.06,.01,.02,.02,.05,.02,.07v3.19c0,.96-.78,1.72-1.74,1.72-.27,0-.52-.07-.75-.17-.08-.05-.12-.16-.07-.24,.04-.09,.14-.11,.23-.09,.18,.09,.39,.14,.6,.14,.76,0,1.37-.6,1.38-1.36v-.24c-.28,.31-.68,.52-1.13,.52-.81,0-1.48-.67-1.48-1.49v-1.98Z"/><path class="cls-2" d="M380.62,102.31c0-1.01,.79-1.84,1.78-1.84s1.69,.75,1.76,1.7h0v.03c0,.1-.08,.16-.18,.16h-3c.04,.8,.66,1.4,1.42,1.4,.48,0,.93-.25,1.18-.66,.05-.09,.16-.1,.24-.06,.08,.06,.11,.16,.06,.25-.31,.5-.86,.83-1.48,.83-.98,0-1.78-.82-1.78-1.82Zm.38-.29h2.77c-.12-.69-.7-1.19-1.37-1.19s-1.26,.49-1.39,1.19Z"/><path class="cls-2" d="M385.27,100.66c0-.1,.08-.18,.19-.18,.09,0,.17,.07,.17,.18v.81s.03-.06,.05-.09c.28-.43,.76-.9,1.46-.9,.1,0,.18,.07,.18,.18,0,.1-.08,.18-.18,.18-.48,0-.81,.27-1.06,.6-.25,.33-.39,.7-.44,.85-.02,.03-.02,.04-.02,.06v1.6c0,.1-.08,.18-.17,.18-.1,0-.19-.07-.19-.18v-3.29Z"/><path class="cls-2" d="M393.65,99.23l-1.35,1.39c.33,.07,.64,.22,.9,.48,.34,.34,.51,.8,.51,1.25s-.17,.91-.52,1.25c-.34,.34-.8,.52-1.25,.52s-.9-.17-1.25-.52c-.07-.07-.07-.19,0-.26,.07-.07,.19-.07,.26,0,.28,.27,.63,.4,.98,.4s.72-.13,.99-.4c.28-.28,.41-.63,.41-.99s-.13-.72-.41-.98c-.27-.28-.63-.41-.99-.41-.06,0-.11-.03-.15-.07h0c-.07-.07-.07-.19,0-.27l1.3-1.34h-2c-.1,0-.19-.08-.19-.19s.08-.19,.19-.19h2.44c.1,0,.19,.08,.19,.19,0,.03,0,.06-.02,.08,0,.02-.02,.04-.04,.06Z"/></g><rect class="cls-20" x="360.33" y="86.63" width="2.34" height="8.87"/><rect class="cls-19" x="360.33" y="96.85" width="2.34" height="8.87"/><rect class="cls-12" x="360.33" y="75.95" width="2.34" height="8.87"/><rect class="cls-2" x="337.23" y="111.23" width="13.74" height=".31"/><g><rect class="cls-2" x="351.37" y="79.84" width="4.76" height="4"/><path class="cls-2" d="M355.55,80.28h-.55v-1.05c0-1.16-.41-1.74-1.21-1.74-1.31,0-1.32,1.55-1.32,1.61v1.18h-.55v-1.18c0-1.04,.59-2.17,1.88-2.17,1.14,0,1.77,.82,1.77,2.3v1.05Z"/></g><path class="cls-2" d="M403.19,82.81c-1.34,0-2.43-1.09-2.43-2.43s1.09-2.43,2.43-2.43,2.43,1.09,2.43,2.43-1.09,2.43-2.43,2.43Zm0-4.55c-1.17,0-2.12,.95-2.12,2.12s.95,2.12,2.12,2.12,2.12-.95,2.12-2.12-.95-2.12-2.12-2.12Z"/><path class="cls-2" d="M403.19,93.5c-1.34,0-2.43-1.09-2.43-2.43s1.09-2.43,2.43-2.43,2.43,1.09,2.43,2.43-1.09,2.43-2.43,2.43Zm0-4.55c-1.17,0-2.12,.95-2.12,2.12s.95,2.12,2.12,2.12,2.12-.95,2.12-2.12-.95-2.12-2.12-2.12Z"/><path class="cls-2" d="M403.19,104.19c-1.34,0-2.43-1.09-2.43-2.43s1.09-2.43,2.43-2.43,2.43,1.09,2.43,2.43-1.09,2.43-2.43,2.43Zm0-4.55c-1.17,0-2.12,.95-2.12,2.12s.95,2.12,2.12,2.12,2.12-.95,2.12-2.12-.95-2.12-2.12-2.12Z"/></g><g id="Character"><g><g><polygon class="cls-17" points="281.72 311.43 279.14 326.94 261.62 421.55 258.79 421.55 271.53 326.94 273.42 311.43 281.72 311.43"/><polygon class="cls-23" points="273.42 311.43 281.72 311.43 279.14 326.94 271.53 326.94 273.42 311.43"/></g><g><polygon class="cls-17" points="336.74 421.55 333.91 421.55 316.39 326.94 313.81 311.43 322.11 311.43 324 326.94 336.74 421.55"/><polygon class="cls-23" points="322.11 311.43 324 326.94 316.39 326.94 313.81 311.43 322.11 311.43"/></g><g><polygon class="cls-17" points="389.28 421.55 386.46 421.55 368.94 326.94 366.35 311.43 374.66 311.43 376.54 326.94 389.28 421.55"/><polygon class="cls-23" points="376.54 326.94 368.94 326.94 366.35 311.43 374.66 311.43 376.54 326.94"/></g><polygon class="cls-17" points="384.8 318.72 256.43 318.72 256.43 305.19 304.49 305.19 320.64 191.22 379.91 191.22 384.8 318.72"/><polygon class="cls-18" points="377.33 305.19 256.43 305.19 256.43 318.72 377.81 318.72 377.33 305.19"/><polygon class="cls-18" points="384.8 318.72 377.81 318.72 373.25 191.22 379.91 191.22 384.8 318.72"/></g><g><g><g><g><path class="cls-24" d="M254.22,439.24c2.49,.23,70.15-15.96,72.28-18.15,.26-.24-1.08-6.39-3.04-14.78l-.04-.16c-1.23-5.32-20.99-48.31-20.99-48.31l-43.86,12.28,19.97,39.89s-8.25,5.97-15.32,11.64c0,.01-.02,.01-.01,.02-4.37,3.48-8.13,6.61-8.93,7.62-2.07,2.64-2.54,9.75-.06,9.97Z"/><path class="cls-5" d="M254.22,439.24c2.48,.24,70.14-15.96,72.28-18.15,.26-.25-1.08-6.39-3.04-14.78l-.04-.16c-.45-1.98-3.49-9.21-7.12-17.49-7.22,1.95-33.09,8.97-42.49,11.88l4.73,9.45s-8.25,5.97-15.32,11.64c0,0,0,0,0,.02-4.37,3.48-8.14,6.61-8.93,7.62-2.07,2.65-2.55,9.76-.06,9.97Z"/><g><path class="cls-12" d="M254,439.56c2.56,.22,70.27-16.16,72.46-18.41,.83-.85-.68-11.54-4.39-22.86l-43.64,10.61s-22.28,17.67-24.41,20.4c-2.12,2.73-2.57,10.04-.01,10.26Z"/><g><g><path class="cls-19" d="M254.31,436.62c11.28-3.02,57.08-14.16,68.46-16.29,.09-.02,.11,.04,.02,.07-11.12,3.24-57,14-68.43,16.4-.24,.05-.28-.12-.04-.19Z"/><path class="cls-19" d="M257.77,425.82c2.67-.76,5.61-.12,7.46,1.13,1.78,1.2,3.51,3.07,4,5.45,.01,.07-.11,.1-.14,.03-1.72-4.29-6.71-7.21-11.29-6.47-.09,.01-.13-.12-.03-.14Z"/><path class="cls-19" d="M275.13,410.9c4.53-1.16,10.18-.83,13.9,2.2,.14,.12-.02,.32-.18,.28-4.62-1.12-8.9-1.76-13.67-1.91-.34-.01-.38-.49-.06-.58Z"/><path class="cls-19" d="M271.95,413.12c4.53-1.16,10.18-.83,13.91,2.2,.14,.12-.03,.32-.18,.28-4.62-1.12-8.9-1.76-13.67-1.91-.34-.01-.38-.49-.06-.58Z"/><path class="cls-19" d="M268.78,415.33c4.53-1.16,10.18-.83,13.9,2.2,.14,.12-.03,.32-.18,.28-4.62-1.12-8.9-1.76-13.67-1.91-.34-.01-.38-.49-.06-.58Z"/><path class="cls-19" d="M265.6,417.55c4.53-1.16,10.18-.83,13.9,2.2,.14,.12-.02,.32-.18,.28-4.62-1.12-8.9-1.76-13.67-1.91-.34-.01-.38-.49-.06-.58Z"/><path class="cls-19" d="M317.28,410.25c5.1-1.22,7,6.71,1.89,7.93-5.1,1.22-7-6.71-1.89-7.93Z"/></g><path class="cls-19" d="M269.26,406.54c3.22,2.57,7.43,3.66,11.21,5.11,.39,.15,.71-.22,.73-.56,.08-.01,.14-.07,.11-.16-1.2-3.85-3.87-7.97-6.94-10.62-1.9-1.64-5.24-2.8-7.08-.34-1.74,2.33,.09,5.07,1.97,6.57Zm-1.12-3.71c-.74-5.05,4.63-2.33,5.98-1.07,.87,.81,1.65,1.74,2.4,2.66,1.57,1.93,2.83,4.05,4.19,6.11-1.81-.83-3.68-1.49-5.52-2.26-2.19-.91-6.65-2.66-7.06-5.45Z"/><path class="cls-19" d="M296.74,404.12c-1.07-2.88-4.61-2.7-6.89-1.66-3.69,1.68-7.4,4.88-9.64,8.25-.05,.08,0,.16,.06,.19-.08,.34,.12,.78,.54,.75,4.03-.34,8.39-.2,12.19-1.76,2.22-.91,4.75-3.03,3.74-5.75Zm-9.92,5.75c-1.98,.21-3.96,.33-5.93,.62,1.88-1.6,3.69-3.28,5.74-4.69,.98-.67,1.99-1.35,3.05-1.88,1.65-.83,7.57-1.93,5.44,2.71-1.17,2.56-5.94,2.99-8.3,3.25Z"/></g></g></g><g><path class="cls-11" d="M273.59,406.35l46.99-14.09s-38.73-80.71-37.51-84.82c.82-2.74,58.88-2.93,75.9-18.21,17.61-15.82,3.9-46.88,3.9-46.88l-48.82-.25s.84,10.19-1.03,11.77c-1.23,1.06-67.98,6.93-80.76,31.47-11.6,22.28,41.33,121.01,41.33,121.01Z"/><path class="cls-19" d="M283.06,307.44c-.21,.69,.73,3.59,2.45,7.93l-35.09,43.11c-12.51-28.53-24.28-61.42-18.17-73.14,12.79-24.54,79.53-30.42,80.77-31.47,1.85-1.58,1.02-11.78,1.02-11.78l30.99,.16-51.5,63.26c-6.2,.68-10.26,1.22-10.47,1.93Z"/><g><path class="cls-20" d="M272.42,396.41c1.22-.61,2.55-.99,3.83-1.42,1.35-.46,2.71-.93,4.07-1.36,2.68-.86,5.37-1.69,8.08-2.45,5.46-1.54,10.92-3.06,16.42-4.45,2.86-.73,9-2.32,9.38-2.26,.18,.03,.22,.33,.06,.39-5.31,1.9-10.7,3.53-16.1,5.17-5.38,1.64-10.78,3.26-16.23,4.64-1.51,.38-3.03,.72-4.55,1.08-1.59,.38-3.19,.89-4.83,1.03-.16,.01-.31-.29-.14-.37Z"/><path class="cls-20" d="M360.24,251.64c-.15-1.63-.33-3.26-.52-4.88-.02-.19-.32-.19-.3,0,.65,6.6,1.32,13.36,.1,19.94-1.14,6.15-4.15,11.54-8.72,15.8-9.69,9.03-23.23,11.69-35.85,13.84-7.23,1.23-14.5,2.18-21.8,2.89-3.57,.35-7.15,.64-10.74,.86-3.55,.22-7.11,.26-10.66,.45-1.12,.06-2.12,.58-1.95,1.86,.11,.78,.54,1.53,.85,2.24,.38,.86,.76,1.73,1.14,2.59,1.43,3.22,2.86,6.44,4.3,9.66,2.97,6.63,5.99,13.24,9.04,19.83,6.07,13.09,12.36,26.07,18.88,38.94,.81,1.6,1.62,3.19,2.43,4.79,.05,.1,.2,0,.15-.09-6.23-13.03-12.39-26.1-18.46-39.21-3.01-6.51-6.03-13.01-9.01-19.53-1.49-3.26-2.97-6.52-4.44-9.79-.74-1.63-1.47-3.27-2.2-4.9-.37-.82-.73-1.64-1.1-2.45-.3-.68-1.41-2.31-.65-2.95,.51-.42,1.57-.28,2.18-.3,.94-.03,1.89-.06,2.83-.09,1.79-.06,3.59-.13,5.38-.22,3.63-.18,7.26-.43,10.88-.74,7.1-.61,14.17-1.51,21.2-2.65,12.54-2.02,26.18-4.29,36.21-12.71,4.43-3.71,7.91-8.49,9.63-14.04,1.91-6.17,1.73-12.77,1.14-19.13Z"/></g></g></g><g><g><path class="cls-24" d="M150.98,377.38c1.77,1.77,64.21,32.45,67.25,32.11,.36-.02,3.25-5.61,7.09-13.32l.08-.15c2.45-4.88,24.66-45.9,24.66-45.9l-38.85-19.67-22.83,39.93s-10.16-.66-19.22-.81c-.01,0-.02,0-.03,0-5.58-.11-10.48-.1-11.74,.17-3.28,.72-8.18,5.89-6.41,7.64Z"/><path class="cls-5" d="M150.98,377.38c1.77,1.77,64.21,32.45,67.26,32.12,.35-.02,3.25-5.61,7.08-13.32l.08-.15c.17-.34,.35-.69,.53-1.03,.12-.25,.25-.5,.39-.74,.19-.36,.38-.73,.58-1.1,1.69-3.21,4.47-8.4,7.53-14.08l-39.61-19.97-6.44,11.26s-10.16-.66-19.22-.81c-.01,0-.02,0-.03,0-5.58-.1-10.48-.1-11.73,.17-3.28,.72-8.19,5.89-6.41,7.64Z"/><g><path class="cls-12" d="M150.6,377.49c1.83,1.8,64.43,32.37,67.55,32.03,1.19-.12,6.84-9.32,11.19-20.41l-40.38-19.66s-28.43-.6-31.81,.15c-3.37,.75-8.38,6.1-6.55,7.89Z"/><g><g><path class="cls-19" d="M152.72,375.42c10.62,4.87,52.99,25.5,63.12,31.12,.08,.05,.05,.1-.03,.07-10.63-4.59-52.84-25.57-63.17-31.01-.22-.11-.14-.27,.08-.17Z"/><path class="cls-19" d="M162.28,369.31c2.54,1.11,4.39,3.48,5.03,5.63,.61,2.06,.75,4.61-.39,6.75-.03,.06-.15,0-.13-.06,1.41-4.4-.57-9.83-4.57-12.18-.08-.05-.02-.17,.06-.13Z"/><path class="cls-19" d="M185.16,368.89c4.23,1.99,8.37,5.85,9.31,10.56,.04,.18-.22,.23-.32,.11-2.84-3.81-5.74-7.03-9.31-10.19-.25-.22,.02-.62,.32-.48Z"/><path class="cls-19" d="M181.3,368.57c4.23,1.99,8.37,5.85,9.31,10.56,.04,.18-.22,.23-.32,.11-2.84-3.81-5.74-7.03-9.31-10.19-.25-.22,.02-.62,.32-.48Z"/><path class="cls-19" d="M177.44,368.25c4.23,1.99,8.37,5.85,9.31,10.56,.04,.18-.22,.23-.32,.11-2.84-3.81-5.74-7.03-9.31-10.19-.25-.22,.02-.62,.32-.48Z"/><path class="cls-19" d="M173.58,367.93c4.23,1.99,8.37,5.85,9.31,10.56,.04,.18-.22,.23-.32,.11-2.84-3.81-5.74-7.03-9.31-10.19-.25-.22,.02-.62,.32-.48Z"/><path class="cls-19" d="M218.04,395.26c4.71,2.31,1.12,9.63-3.6,7.31-4.71-2.32-1.12-9.63,3.6-7.31Z"/></g><path class="cls-19" d="M183.43,361.78c.84,4.03,3.39,7.56,5.37,11.09,.21,.37,.68,.29,.92,.03,.07,.04,.15,.04,.19-.06,1.53-3.73,2.1-8.6,1.43-12.6-.42-2.47-2.25-5.5-5.24-4.78-2.82,.69-3.16,3.97-2.67,6.32Zm1.5-3.57c2.65-4.37,5.06,1.16,5.29,2.99,.15,1.18,.16,2.4,.15,3.58-.02,2.49-.4,4.92-.67,7.38-.87-1.79-1.88-3.5-2.81-5.25-1.11-2.1-3.42-6.29-1.96-8.7Z"/><path class="cls-19" d="M206.13,377.45c1.01-2.9-1.83-5.02-4.25-5.68-3.92-1.06-8.82-.96-12.68,.2-.1,.03-.11,.11-.07,.18-.28,.21-.4,.68-.06,.92,3.32,2.31,6.58,5.2,10.52,6.42,2.3,.71,5.59,.7,6.55-2.05Zm-11.31-1.9c-1.66-1.1-3.26-2.27-4.96-3.31,2.47-.03,4.93-.17,7.41,.04,1.18,.1,2.39,.23,3.55,.5,1.8,.41,7.07,3.34,2.47,5.56-2.54,1.22-6.49-1.48-8.47-2.79Z"/></g></g></g><g><path class="cls-11" d="M188.57,363.91l46.85,23.41s36.57-74.34,40.58-79.13c5.35-6.39,75,2.63,91.43-17.99,16.99-21.33,2.43-47.82,2.43-47.82l-53.02-.03s-.16,5.88,2.9,14.48c0,0-60.63-3.61-77.79,13.07-13.17,12.8-53.38,94.02-53.38,94.02Z"/><g><path class="cls-20" d="M329.4,262.18c-2.74-1.85-5.51-3.6-8.43-5.15-1.48-.78-4.5-2.12-6.39-2.58-1.55-.38-2.22-.49-.77,.2,.83,.39,2.42,1.15,3.9,1.85-.28,0-.55-.02-.82-.03-1.04-.05-2.08-.09-3.13-.12-2.04-.05-4.08-.04-6.12-.05-4.14-.02-8.23,.37-12.36,.57-.11,0-.11,.17,0,.17,4.12-.13,8.26,.08,12.38,.07,2.04,0,4.08,.05,6.12,.09,1,.02,1.99,.04,2.99,.05,.82,.01,1.7,.08,2.53,0,.44,.21,.84,.4,1.14,.54,3,1.41,5.99,2.89,8.88,4.52,.09,.05,.17-.07,.09-.13Z"/><path class="cls-20" d="M315.58,240.36c.54,2.5,1,5.02,1.63,7.5,.29,1.14,.57,2.3,.96,3.41,.33,.94,.84,2.01,1.9,2.25,1.22,.28,1.61-.76,1.55-1.78-.07-1.14-.33-2.29-.51-3.41-.22-1.3-.43-2.59-.62-3.89-.1-.65-.2-1.3-.28-1.95-.02-.16-.1-1.41-.18-1.76-.01,.03-.03,.06-.07,.05-.01,0-.03,0-.04,0-.03,0-.07-.03-.07-.07,0-.1,0-.12,.07-.18,.03-.03,.08-.03,.11,0,.23,.14,.24,.46,.31,.7,.18,.63,.36,1.27,.52,1.91,.3,1.2,.6,2.39,.86,3.6,.26,1.2,.51,2.41,.77,3.62,.19,.9,.42,1.85,.15,2.76-.3,1-1.12,1.47-2,1.52,.04,.08,.09,.16,.12,.25,.1,.25,.17,.51,.25,.76,.09,.26,.16,.52,.23,.78,.03,.13,.05,.26,.06,.39,.01,.14-.02,.28,0,.43,.02,.22-.28,.35-.39,.13-.06-.13-.15-.23-.22-.35-.07-.13-.12-.28-.16-.42-.08-.25-.14-.5-.19-.76-.05-.25-.12-.51-.16-.76-.02-.15-.02-.31-.03-.46-.5-.07-1-.26-1.41-.59-.72-.58-1.13-1.45-1.41-2.32-.34-1.05-.59-2.12-.85-3.19-.63-2.64-1.15-5.33-1.31-8.05-.02-.29,.39-.38,.45-.08Z"/><path class="cls-20" d="M341.15,247.49c.18,1.24,.28,2.49,.53,3.72,.24,1.2,.52,2.41,.88,3.58,.34,1.12,.76,2.26,1.41,3.25,.62,.96,1.46,1.8,2.33,2.53,1.7,1.45,3.64,2.62,5.72,3.44,1.05,.42,2.12,.77,3.21,1.06,.57,.15,1.14,.27,1.72,.36,.48,.08,.96,.11,1.38,.37,.18,.11,.14,.4-.04,.48-.75,.34-1.79,.1-2.58,0-.92-.13-1.84-.31-2.74-.58-1.81-.53-3.55-1.35-5.13-2.37-1.55-1-3.11-2.23-4.23-3.7-1.16-1.53-1.78-3.31-2.15-5.18-.45-2.24-.72-4.67-.53-6.95,.01-.13,.22-.15,.24-.01Z"/><path class="cls-20" d="M198.08,355.39c1.31,.39,2.53,1.03,3.76,1.59,1.3,.6,2.61,1.19,3.9,1.8,2.54,1.21,5.07,2.46,7.56,3.77,5.03,2.62,10.04,5.28,14.99,8.04,2.58,1.44,8.14,4.5,8.37,4.8,.11,.15-.07,.4-.23,.33-5.17-2.26-10.21-4.78-15.25-7.29-5.04-2.5-10.08-5.03-14.99-7.77-1.36-.76-2.7-1.56-4.05-2.34-1.41-.81-2.93-1.55-4.22-2.56-.12-.1-.03-.42,.15-.37Z"/><path class="cls-20" d="M369.82,254.71c0-.23-.35-.22-.35,0,.1,11.51-1.68,24.39-10.54,32.64-9.72,9.06-23.73,10.14-36.35,10.03-7.24-.06-14.47-.25-21.71-.02-7.27,.23-14.62,.59-21.84,1.51-2.92,.37-5.36,1.42-7.42,3.55-2,2.07-3.44,4.62-4.92,7.07-3.64,6.03-7.17,12.14-10.58,18.3-6.78,12.26-13.06,24.79-18.83,37.55-.72,1.59-1.43,3.17-2.13,4.77-.05,.11,.11,.19,.16,.09,5.86-12.81,12.21-25.41,18.94-37.79,3.37-6.19,6.85-12.32,10.44-18.38,1.69-2.85,3.33-5.77,5.21-8.49,1.66-2.41,3.75-4.68,6.63-5.55,1.74-.53,3.59-.62,5.39-.78,1.85-.17,3.7-.32,5.55-.46,3.61-.26,7.22-.46,10.84-.59,7.3-.27,14.59-.18,21.89-.04,12.67,.23,26.52-.21,37.03-8.28,4.55-3.49,7.82-8.27,9.77-13.64,1.98-5.47,2.69-11.35,2.82-17.14,.03-1.45,.03-2.9,0-4.35Z"/><path class="cls-20" d="M293.94,305.14c-2.59,.05-5.17,.15-7.76,.24-2.15,.07-4.31,.05-6.42,.57-1.96,.49-3.51,.72-5.11,2.91-2,2.73-12.88,23.76-17.45,33.07-1.27,2.58-2.52,5.17-3.75,7.77-1.27,2.69-2.39,5.44-3.65,8.13-.05,.1,.1,.18,.15,.08,1.12-2.25,2.37-4.43,3.52-6.66,1.16-2.23,2.28-4.48,3.4-6.73,2.27-4.54,4.53-9.08,6.82-13.61,2.26-4.49,5.01-8.87,7.3-13.35,1.93-3.76,4.56-8.89,6.4-9.66,2.16-.9,5.69-1.78,8-1.94,2.85-.2,5.7-.37,8.55-.62,.13-.01,.13-.21,0-.2Z"/></g></g></g></g><g><g><path class="cls-19" d="M350.93,170.41c2.43,9.61,6.97,20.74,4.75,30.77-1.75,7.86-7.54,14.1-13.92,18.65-14.04,10.01-35.47,15.34-49.44,2.23-5.58-5.24-8.94-17.84-2.73-23.98,3.19-3.15,7.45-4.6,11.38-6.58,5.18-2.6,8.51-6.49,10-12.12,2.91-10.97,.43-18.05-.84-29.01-.23-2.03-.16-4.1,1.46-6.19,1.31-2.06,3.33-3.71,5.66-4.86,1.91-1.27,4.01-2.2,6.32-2.42,4.87-.48,10.35,2.97,14.6,4.95,4.3,2.01,6.61,4.55,7.86,9.17,1.73,6.43,3.28,12.9,4.92,19.36Z"/><path class="cls-19" d="M353.07,174.74c-2.8-8.67-5.76-17.27-8.67-25.89-.02-.05-.1-.03-.08,.02,2.19,7.17,4.27,14.36,6.56,21.5,2.24,7,5.02,14.04,6.63,21.21,3.63,16.09-11.64,26.09-25.54,28.12-.63,.09-.41,1.09,.22,.98,12.15-2.17,25.72-9.26,26.67-23.14,.52-7.59-3.5-15.7-5.79-22.79Z"/><path class="cls-19" d="M310.72,149.39c-.04-.17-.29-.11-.27,.06,1.42,8.97,3.92,19.29,.45,28.07-1.7,4.3-4.7,8.05-8.55,10.62-3.06,2.04-6.57,2.89-9.92,4.29-13.09,5.48-9.44,23.93,1.95,29.08,.24,.11,.43-.3,.2-.42-8.12-4.13-12.5-13.76-8.33-22.35,3.34-6.89,12.5-6.81,18.07-11.3,11.53-9.31,9.32-25.21,6.4-38.06Z"/></g><g><g><path class="cls-24" d="M334.88,185.66c-6.01,12.99-26.54,43.11-36.43,44.49-8.75,1.22-30.42-3.82-37.72-7.83-3.35-1.84,5.09-26.71,10.72-25.53,7.04,1.48,16.56,4.95,23.09,5.35,2.31,.14,13.43-7.8,33.02-20.7,7.29-4.8,10.7-3.1,7.32,4.22Z"/><g><g><path class="cls-24" d="M260.11,199.89s-17.43-2.69-18.32-2.53c-.9,.18-.71,1.45-.6,2.46,.02,.24,.36,.86,.76,1.68,1.31,2.59,3.52,7.21,0,8.26-4.62,1.38-9.61-9-10.13-10.74-.14-.47-.09-1.35,.14-2.4,.63-2.84,2.6-6.99,5.96-8.06,4.6-1.47,9.86-.83,14.46-.6l7.73,11.94Z"/><path class="cls-19" d="M260.11,199.89s-17.43-2.69-18.32-2.53c-.9,.18-.71,1.45-.6,2.46,.02,.24,.36,.86,.76,1.68-3.56-1.73-7.49-3.65-9.98-4.89,.63-2.84,2.6-6.99,5.96-8.06,4.6-1.47,9.86-.83,14.46-.6l7.73,11.94Z"/></g><path class="cls-24" d="M260.73,222.32c-.91-.49-5.6-1.87-11.93-4.06-1.7-4.89-6.23-14.24-7.42-16.72-.85-2.99-4.37-8.88-4.64-8.75-.51,.25-2.33,1.13-4.62,2.02-3.02,1.17-6.87,2.38-9.62,2.2-1.5-.1-2.66-.6-3.21-1.72-.99-2.02,3.35-4.37,8.25-7.6,6.67-4.41,15.09-9.46,19.22-8.24,6.1,1.8,12.11,9.25,14.16,11.26,2.06,2.01,10.53,6.09,10.53,6.09-1.74,9.14-9.5,26.17-10.72,25.53Z"/><path class="cls-19" d="M240.69,199.68c-.07-.12-.15-.06-.09,.09,.18,.48,.93,2.63,.46,2.86-.81,.41-5.69-2.23-7.93-2.97-.12-.04-.19,.12-.07,.15,.61,.16,2.76,1.31,3.29,1.57,1.03,.51,4.04,2.29,5.07,1.78,.69-.34-.43-3.01-.72-3.49Z"/><g><path class="cls-19" d="M216.81,211.4c-.6,.59-1.27,1.07-1.55,.79h0c-.26-.3,.23-.95,.83-1.54l.73,.75Z"/><path class="cls-25" d="M223.78,210.57c-.63,.61-5.4,1.1-7.17,1.01-.34-.02-.73-.4-.73-.73-.04-1.74,.57-6.54,1.2-7.15,.43-.42,2.41-1.45,4.35-2.66,2.53-1.57,29.7-26.74,30.14-26.86,.45-.12,1.26,.55,1.66,.97,.41,.42,1.07,1.26,.94,1.7-.14,.43-25.99,26.96-27.62,29.45-1.26,1.9-2.34,3.86-2.77,4.28Z"/><path class="cls-23" d="M223.78,210.58s-.13,.1-.24,.14c-1.76-1.12-3.09-2.26-4.1-3.3-1.36-1.4-2.13-2.61-2.54-3.38,.05-.16,.12-.27,.19-.33,.07-.07,.17-.15,.31-.25,.58,1.18,2.32,4.03,6.66,6.78-.11,.16-.2,.28-.27,.34Z"/><g><rect class="cls-19" x="226.7" y="194.01" width="1.98" height="12.1" rx=".73" ry=".73" transform="translate(212.04 -102.63) rotate(45.74)"/><rect class="cls-23" x="225.92" y="197.39" width="1.15" height="7.68" rx=".43" ry=".43" transform="translate(212.46 -101.42) rotate(45.73)"/><rect class="cls-19" x="225.51" y="201.45" width=".34" height="1.15" transform="translate(-76.94 214.84) rotate(-44.26)"/></g></g><path class="cls-24" d="M248.8,218.26c-2.17-.74-4.1-1.38-5.43-1.78-5.23-1.56-7.62-4.13-9.72-7.19-2.08-3.06-12.73-6.34-7.55-9.56,5.19-3.22,14.46,4.66,15.36,3.3,.17-.26,.12-.8-.08-1.49,1.19,2.48,5.72,11.83,7.42,16.72Z"/></g></g><g><path class="cls-12" d="M305.07,193.5l21.53,8.63s6.8-9.47,9.82-15.24c4-7.64,2.1-10.91-7.75-7.09-6.59,2.56-23.6,13.71-23.6,13.71Z"/><path class="cls-19" d="M323.97,201.08c.25,.05,2.49,.86,2.63,.97,.77-1.13,1.53-2.28,2.31-3.4,.39-.56,.79-1.12,1.2-1.67,.45-.61,.93-1.32,1.33-1.85,.06-.08,.17-.01,.12,.08-.45,.75-.81,1.29-1.2,1.94-.35,.58-.72,1.15-1.09,1.71-.8,1.19-1.6,2.48-2.45,3.63-.07,.09-2.68-1.18-2.89-1.31-.04-.02,0-.08,.03-.08Z"/><path class="cls-19" d="M308.07,192.33c3.22,1.04,6.42,2.12,9.57,3.35,1.57,.61,3.14,1.25,4.69,1.91,1.55,.66,3.04,1.48,4.6,2.11,.09,.03,.02,.17-.06,.13-1.52-.72-3.16-1.23-4.72-1.86-1.56-.63-3.13-1.26-4.7-1.88-3.14-1.23-6.28-2.47-9.44-3.63-.09-.03-.03-.16,.06-.13Z"/></g></g><g><path class="cls-12" d="M312.26,244.81l61.17,4.94s-15.66-53.37-28.26-66.84c-5.74-6.13-11.35-5.19-16.1-1.25-1.19,.99-15.89,19.64-17.13,26.15-1.1,5.75,3.57,12.13,3.57,12.13l-3.25,24.87Z"/><path class="cls-19" d="M321.31,191.56c-1.84,2.94-3.85,5.78-5.7,8.7-.94,1.45-1.84,2.92-2.58,4.47-.75,1.54-1.25,3.2-1.26,4.95-.1-.86-.07-1.74,.1-2.62,.16-.86,.44-1.7,.78-2.51,.68-1.62,1.6-3.11,2.51-4.59,.88-1.33,1.79-2.66,2.72-3.95,.15-.46,.34-.9,.51-1.35,.29-.64,.58-1.3,.96-1.9-.17,.69-.45,1.34-.71,1.99-.09,.19-.16,.36-.24,.54,.94-1.28,1.91-2.53,2.91-3.75Z"/><path class="cls-5" d="M361.24,214c-2.43,.93-4.86,1.89-7.45,2.35-.75,.12-1.51,.19-2.28,.09-.76-.08-1.52-.38-2.08-.92-1.13-1.1-1.52-2.68-1.77-4.15-.26-1.77-.35-3.54-.43-5.31,0-.09-.01-.18-.02-.26-.05-1.16-.11-2.32-.23-3.47-.15-1.49-.37-2.99-.8-4.42-.42-1.44-1.06-2.82-2.02-3.96-.93-1.16-2.2-2.05-3.59-2.55-1.41-.5-2.93-.6-4.42-.56-2.07,.08-4.12,.42-6.16,.83-.07,.02-.15,.03-.22,.04-.85,.18-1.69,.36-2.54,.54-2.43,.51-4.86,1.04-7.34,1.32,.05-.07,.1-.14,.14-.21,2.41-.28,4.78-.8,7.16-1.31,.88-.19,1.76-.38,2.65-.56,.07-.02,.14-.03,.21-.04,2-.42,4.03-.76,6.09-.84,1.51-.04,3.06,.06,4.51,.56,1.44,.52,2.74,1.43,3.71,2.62,.98,1.18,1.63,2.59,2.05,4.05,.44,1.46,.65,2.97,.8,4.47,.11,1.09,.17,2.18,.22,3.27,.01,.09,.01,.18,.02,.26,.08,1.84,.15,3.68,.42,5.49,.24,1.46,.63,3,1.7,4.04,1.08,1.06,2.75,1.03,4.19,.79,2.56-.45,4.99-1.39,7.42-2.31l.06,.15Zm-36.25,26.12c-1.11-1.01-2.39-2-3.96-2.16-.78-.08-1.56,.16-2.21,.57-.66,.4-1.21,.93-1.73,1.49-1.34,1.51-2.42,3.19-3.45,4.9l.2,.02c1.02-1.68,2.09-3.33,3.39-4.79,.98-1.08,2.28-2.15,3.78-1.99,1.48,.15,2.75,1.11,3.84,2.11,1.97,1.85,3.64,4,5.49,6l.35,.03c-1.92-2.03-3.64-4.26-5.7-6.18Zm42.62-8.52c-.21,0-.43,.03-.64,.05-3.07,.33-5.76,2.05-7.99,4.06-2.26,2.02-4.18,4.37-6.1,6.7-1.51,1.81-3,3.65-4.67,5.3l.29,.03c1.63-1.64,3.07-3.43,4.54-5.2,1.92-2.33,3.83-4.68,6.06-6.69,2.22-2,4.87-3.71,7.88-4.04,.23-.02,.46-.04,.69-.05-.02-.05-.04-.1-.06-.16Zm-11.95-30.91c-2.89,.5-5.41,2.21-7.5,4.18-.25,.23-.49,.47-.73,.71l-.22,.22c-1.8,1.85-3.4,3.89-5,5.9-1.46,1.84-2.9,3.7-4.53,5.39-.06,.06-.12,.13-.19,.19-.39,.41-.81,.81-1.24,1.2-1.12,.98-2.36,1.87-3.76,2.39-1.39,.5-2.93,.63-4.39,.34-1.46-.28-2.84-.93-4.08-1.77-1.25-.82-2.37-1.84-3.44-2.89-2.16-2.1-4.03-4.49-6.3-6.51-.73-.63-1.54-1.26-2.44-1.66-.01,.07-.02,.15-.03,.22,.85,.37,1.63,.97,2.34,1.59,2.24,2.01,4.11,4.4,6.26,6.53,1.08,1.06,2.21,2.08,3.48,2.92,1.25,.86,2.66,1.53,4.17,1.81,1.5,.3,3.08,.17,4.52-.35,1.44-.54,2.69-1.45,3.82-2.45,.47-.43,.93-.87,1.36-1.32,.07-.06,.13-.13,.19-.19,1.59-1.68,3-3.51,4.43-5.31,1.55-1.98,3.11-3.97,4.85-5.77,.07-.08,.14-.15,.22-.22,.27-.28,.55-.56,.84-.83,2.08-1.97,4.58-3.68,7.43-4.16-.02-.06-.04-.11-.06-.16Zm-6.48,20.05c-.96-1.24-2.49-1.81-3.92-2.22-2.41-.65-4.88-.94-7.31-1.38-.09-.02-.18-.04-.27-.05-.44-.09-.88-.17-1.32-.27-1.47-.32-2.93-.71-4.31-1.3-1.38-.58-2.67-1.37-3.71-2.45-1.04-1.06-1.78-2.42-2.12-3.86-.33-1.45-.26-2.98-.05-4.46,.45-2.97,1.46-5.83,2.41-8.69,.48-1.45,.97-2.91,1.41-4.39,.02-.07,.04-.15,.06-.22,.4-1.35,.74-2.72,.99-4.11,.41-2.31,.52-4.76-.09-7.04l-.15,.09c.58,2.24,.46,4.64,.05,6.91-.25,1.42-.61,2.81-1.01,4.19-.03,.07-.05,.14-.07,.22-.43,1.43-.91,2.86-1.39,4.28-.95,2.86-1.97,5.72-2.44,8.73-.21,1.5-.29,3.04,.05,4.54,.35,1.49,1.1,2.89,2.17,3.98,1.07,1.11,2.4,1.92,3.8,2.5,1.4,.6,2.87,.98,4.35,1.3,.39,.09,.79,.17,1.18,.24,.09,.02,.18,.03,.27,.05,2.49,.46,5.01,.74,7.44,1.39,1.42,.4,2.91,.96,3.82,2.14,.93,1.2,.71,2.86,.31,4.26-.85,2.89-2.35,5.54-3.71,8.23-1.37,2.68-2.77,5.38-3.69,8.27-.44,1.44-.78,2.94-.73,4.46,0,.36,.05,.72,.11,1.08h.14c-.07-.35-.11-.71-.12-1.08-.04-1.5,.29-2.99,.74-4.42,.92-2.87,2.33-5.56,3.7-8.24,1.36-2.69,2.87-5.33,3.74-8.25,.2-.73,.37-1.48,.36-2.25,0-.77-.21-1.56-.69-2.18Z"/><g><path class="cls-19" d="M331.91,218.65c-2.37,.1-4.75,.29-7.08,.74-1.16,.23-2.3,.5-3.44,.81-.57,.15-1.14,.28-1.71,.41-.59,.13-1.22,.25-1.83,.23-.05,0-.06,.08,0,.08,.59,.05,1.15,.1,1.74,.07,.56-.03,1.12-.11,1.68-.21,1.18-.22,2.35-.49,3.52-.72,2.37-.46,4.74-.92,7.14-1.22,.11-.01,.09-.2-.02-.2Z"/><path class="cls-19" d="M337.63,221.08c-1.92-.31-3.89-.54-5.84-.63-.98-.05-1.96-.03-2.94,0-.47,.02-.94,.04-1.4,.08-.51,.03-1.02,.14-1.54,.17-.05,0-.06,.09,0,.08,.49-.01,.98,.06,1.46,.08,.49,.02,.98,.03,1.46,.05,.98,.03,1.95,.08,2.93,.1,1.96,.05,3.91,.12,5.86,.23,.11,0,.11-.14,0-.16Z"/></g></g><g><g><path class="cls-24" d="M337.15,180.12c.06,1.11-2.89,9.27-7.68,10.45-1.56,.38-4.01-8.05-4.01-8.05l-.32-.58-4.52-8.13,8.29-9.58,1.22-1.31s1.09,2.31,2.42,5.19c.06,.13,.12,.27,.19,.41,.08,.16,.16,.31,.22,.47,.2,.43,.41,.87,.61,1.31,.15,.33,.3,.66,.44,1.02,.16,.36,.3,.7,.45,1.06,1.46,3.53,2.65,7.28,2.69,7.75Z"/><path class="cls-19" d="M332.54,168.11c-.45,7.67-5.15,12.13-7.41,13.83l-4.52-8.13,8.29-9.58,1.22-1.31s1.09,2.31,2.42,5.19Z"/></g><g><path class="cls-24" d="M305.33,161.52c.53,16.32,10.36,17.84,13.88,17.73,3.19-.11,14.06-.88,15.22-17.16,1.16-16.29-6.59-21.2-13.91-21.34-7.32-.14-15.71,4.46-15.19,20.78Z"/><g><path class="cls-19" d="M307.54,158.62c.38-.07,.72-.19,1.09-.29,.42-.12,.76-.17,1.05-.51,.16-.18,.12-.54-.04-.71-.38-.4-.93-.38-1.44-.26-.55,.13-.94,.37-1.29,.82-.33,.43,.12,1.04,.62,.95Z"/><path class="cls-19" d="M318.72,157.98c-.38-.02-.74-.11-1.11-.17-.43-.07-.77-.08-1.1-.39-.18-.17-.18-.52-.04-.71,.34-.43,.88-.48,1.4-.41,.56,.07,.98,.27,1.37,.67,.38,.4,0,1.04-.51,1.01Z"/><g><g><path class="cls-19" d="M316.35,162.12s.09,.05,.09,.1c0,1.11,.19,2.39,1.2,2.72,.03,.01,.03,.07,0,.06-1.23-.13-1.46-1.83-1.28-2.88Z"/><path class="cls-19" d="M317.31,160.93c1.78-.19,2.03,3.39,.38,3.57-1.63,.17-1.88-3.41-.38-3.57Z"/></g><path class="cls-19" d="M318.02,161.07c.33,.18,.66,.52,1.04,.53,.44,.01,.74-.39,1-.77,.03-.04,.06-.01,.06,.04,.06,.69-.16,1.41-.88,1.56-.66,.14-1.19-.43-1.41-1.11-.04-.13,.06-.32,.19-.25Z"/></g><g><g><path class="cls-19" d="M310.17,162.32s-.08,.06-.08,.1c.12,1.11,.07,2.39-.9,2.84-.03,.01-.02,.07,.01,.06,1.21-.27,1.26-1.98,.96-3Z"/><path class="cls-19" d="M309.09,161.24c-1.79,0-1.65,3.59,0,3.59,1.63,0,1.5-3.59,0-3.59Z"/></g><path class="cls-19" d="M308.35,161.51c-.28,.2-.54,.56-.88,.59-.39,.04-.7-.34-.96-.7-.03-.04-.05,0-.05,.04,0,.69,.26,1.39,.93,1.5,.61,.1,1.02-.51,1.16-1.2,.03-.13-.08-.32-.19-.24Z"/></g><path class="cls-19" d="M317.12,171.22c-.23,.29-.46,.68-.85,.76-.38,.08-.85-.04-1.22-.14-.04,0-.07,.03-.04,.06,.34,.39,.97,.59,1.47,.44,.49-.15,.69-.61,.75-1.08,0-.07-.08-.08-.11-.04Z"/><g><path class="cls-19" d="M312.72,169.66s.76,1.04,1.81,1.41c.39,.14,.8,.2,1.24,.08,.9-.23,.92-1.05,.76-1.76-.13-.58-.4-1.08-.4-1.08,0,0-1.31,1.22-3.41,1.34Z"/><path class="cls-8" d="M314.53,171.07c.39,.14,.8,.2,1.24,.08,.9-.23,.92-1.05,.76-1.76-.96,.09-1.91,.74-2,1.68Z"/></g><path class="cls-19" d="M312.24,167.48s-.13,1.67-.09,2.45c0,.07,.2,.1,.46,.1,.01,0,.02,0,.03,0,1.39,.13,2.76-.42,3.53-1.6,.05-.08-.05-.15-.12-.1-.99,.82-2.11,1.08-3.34,1.17-.07-.21,.32-2.85,.2-2.86-.43-.01-1.25,.33-1.75,.51,.17-3.49,.91-6.92,1.03-10.4,0-.12-.18-.15-.21-.04-1.02,3.54-1.31,7.55-1.58,11.15-.04,.45,1.54-.23,1.84-.38Z"/></g><path class="cls-19" d="M333.26,163.38c-1.77-.11-6.38-5.01-6.49-13.59,0,0,.63,7.69,1.2,8.82,.57,1.13-2.57-2.76-2.76-9.67,0,0-3.84,2.75-7.11,3.65-3.27,.9-5.27,.86-5.5,.63-.23-.24,4.58-1.73,5.88-3.23,0,0-8.7,4-12.7,4.29-.46,.03-.98-9.49,5.22-13.51,6.2-4.02,15.99,.38,18.62,2.94,0,0,3.09,.45,6.44,5.04,3.35,4.59-.9,14.74-2.81,14.61Z"/><g><path class="cls-12" d="M318.5,167.43c-2.82-.24-4.91-2.72-4.68-5.53h0c.24-2.82,2.72-4.91,5.53-4.68,2.82,.24,4.91,2.72,4.68,5.53-.2,2.38-2.01,4.25-4.26,4.63-.41,.07-.84,.09-1.27,.05Zm-4-5.48c-.2,2.44,1.61,4.59,4.05,4.79,2.44,.21,4.59-1.61,4.79-4.05,.2-2.44-1.61-4.59-4.05-4.79-.38-.03-.75-.01-1.1,.04-1.95,.33-3.52,1.95-3.69,4.01Z"/><path class="cls-12" d="M307.69,167.92c-2.1,.1-3.92-2.11-4.06-4.93-.07-1.35,.26-2.64,.91-3.63,.67-1.03,1.61-1.62,2.65-1.67,1.04-.05,2.04,.45,2.8,1.41,.74,.93,1.19,2.18,1.26,3.52,.13,2.67-1.29,4.94-3.23,5.27-.11,.02-.22,.03-.33,.04Zm-2.58-8.19c-.57,.87-.85,2.02-.8,3.22,.12,2.44,1.62,4.36,3.34,4.28,1.73-.08,3.03-2.14,2.91-4.59-.06-1.2-.45-2.32-1.11-3.13-.63-.78-1.42-1.19-2.24-1.15-.09,0-.17,.01-.26,.03-.71,.12-1.36,.59-1.85,1.34Z"/><path class="cls-12" d="M314.02,162.48l.41-.55c-.81-.61-2.65-1.4-3.83,0l.52,.44c1.06-1.25,2.82,.05,2.89,.11Z"/><path class="cls-12" d="M336.89,162.68l.59-.34c-.16-.28-1.61-2.7-3.15-2.88-1.44-.16-10.57,1.15-10.96,1.21l.1,.68c2.62-.38,9.67-1.33,10.78-1.2,1.02,.11,2.25,1.87,2.64,2.54Z"/></g><g><g><path class="cls-24" d="M334.65,168.1c-.26,.13-.5,.22-.73,.28-.27,.08-.53,.11-.76,.11-.37,0-.69-.07-.97-.19-.25-.1-.48-.25-.67-.4-.48-.39-.72-.84-.72-.84l.38-4.44s2.94-5.48,5.38-4.49c2.45,.99,.67,8.64-1.91,9.96Z"/><path class="cls-19" d="M336,160.31s.06,.05,.02,.07c-1.8,.99-2.58,2.86-3.06,4.76,.48-.77,1.2-1.24,2.22-.68,.05,.03,.02,.11-.04,.11-.79-.07-1.34,.13-1.79,.81-.32,.48-.5,1.07-.71,1.61-.07,.18-.38,.13-.34-.08,0-.01,0-.03,.01-.05-.34-2.4,1.13-6,3.69-6.55Z"/></g><path class="cls-5" d="M334.35,167.44c-.03,.42-.4,.73-.81,.69-.42-.03-.73-.4-.69-.81,.03-.42,.4-.73,.81-.69,.42,.03,.73,.4,.69,.81Z"/><path class="cls-5" d="M335.75,166.12c-.02,.29-.28,.51-.58,.49-.29-.02-.51-.28-.49-.58,.02-.29,.28-.51,.58-.49,.29,.02,.51,.28,.49,.58Z"/></g></g></g><g><g><path class="cls-24" d="M347.97,185.84c11.12,17.23,25.76,46.06,17.79,51.59-13.1,9.09-49.46,12-57.77,12.32-3.59,.14-8.83-23.66-6.22-26.47,2.61-2.81,40.73-1.87,41.19-4.18,.26-1.31-1.91-12.89-4.48-27.28-2.96-16.6,6.31-10.91,9.49-5.98Z"/><g><path class="cls-24" d="M308.14,221.87s-10.88-.96-18.03-1.26c-3.99-.16-10.85,.16-13.83,1.38-4.46,1.82-21.97,12.3-19.52,16.6,2.22,3.89,16.11-7.02,16.11-7.02,0,0-14.99,9.77-11.46,13.96,3.53,4.19,17.59-10.22,17.59-10.22,0,0-15.18,10.38-10.86,14.13,3.27,2.83,16.74-9.5,16.74-9.5,0,0-12.99,9.01-9.75,12.07,3.58,3.38,16.72-7.23,16.72-7.23,9.53,6.39,16.69,5.53,21.7,4.32,1.21-.29-5.42-27.24-5.42-27.24Z"/><g><path class="cls-19" d="M277.84,227.86c-1.8,1.08-3.63,2.17-5.34,3.41-1.7,1.24-3.36,2.54-4.94,3.93-3.87,3.42-5.76,6.16-5.62,6,3.19-3.71,9.21-8.24,10.91-9.48,1.7-1.24,3.33-2.56,5.03-3.8,.04-.03,0-.09-.05-.06Z"/><path class="cls-19" d="M282.43,233.92c-2.24,1.48-4.52,2.87-6.7,4.46-2.17,1.58-4.08,3.26-6.14,4.98-.16,.13-.03,.17,.13,.05,2.12-1.64,4.21-2.99,6.34-4.6,2.13-1.61,4.22-3.31,6.4-4.84,.03-.02,0-.07-.04-.05Z"/><path class="cls-19" d="M287.31,238.41c-3.54,2.09-6.7,4.83-9.72,7.6-.15,.14,.01,.17,.18,.04,3.18-2.59,5.66-4.64,9.62-7.52,.06-.04,0-.17-.07-.12Z"/></g></g><path class="cls-19" d="M310.21,221.51c-2.53-.21-5.28-.09-7.88-.19-2.27-.08-4.4-.39-6.61-.54-4.53-.3-11.22-.72-15.73,0-3.26,.52-7.31,3.18-9.61,4.27-.1,.05-.02,.19,.08,.15,4.31-1.55,6.91-3.4,10.82-3.96,4.49-.64,16.2,.24,20.72,.5,2.64,.15,5.56-.12,8.2-.02,.13,0,.14-.19,.01-.2Z"/></g><g><path class="cls-12" d="M362.18,207.71l-23.11-1.98s-1.81-11.52-1.91-18.03c-.13-8.62,3.04-10.69,10.12-2.84,4.74,5.25,14.91,22.86,14.91,22.86Z"/><path class="cls-19" d="M341.89,205.98c-.24-.07-2.61-.35-2.79-.32-.18-1.36-.34-2.72-.53-4.08-.1-.68-.21-1.36-.32-2.03-.13-.74-.24-1.6-.36-2.26-.02-.1-.15-.09-.14,.01,.06,.87,.14,1.52,.2,2.27,.05,.67,.12,1.35,.21,2.02,.18,1.42,.31,2.94,.56,4.34,.02,.11,2.92,.15,3.17,.13,.04,0,.04-.07,0-.08Z"/><path class="cls-19" d="M360.03,205.32c-3.34-.52-6.69-.99-10.05-1.32-1.68-.16-3.36-.3-5.05-.41-1.68-.11-3.38-.05-5.06-.18-.09,0-.1,.14,0,.14,1.68,.05,3.37,.32,5.05,.46,1.68,.14,3.36,.28,5.05,.44,3.36,.31,6.72,.62,10.07,1.01,.09,.01,.09-.13,0-.14Z"/></g></g></g></g></g><g id="Table"><rect class="cls-10" x="81.6" y="246.84" width="336.8" height="11.98"/><rect class="cls-9" x="93.66" y="258.82" width="312.69" height="11.97"/><polygon class="cls-9" points="93.68 438.85 88.84 438.85 102.93 270.8 115.29 270.8 93.68 438.85"/><polygon class="cls-10" points="115.29 270.8 113.84 282.04 101.99 282.04 102.93 270.8 115.29 270.8"/><polygon class="cls-9" points="406.32 438.85 411.16 438.85 397.07 270.8 384.71 270.8 406.32 438.85"/><polygon class="cls-10" points="384.71 270.8 386.16 282.04 398.01 282.04 397.07 270.8 384.71 270.8"/></g><g id="Devices"><g><polygon class="cls-7" points="166.3 246.84 235.77 246.84 218.9 200.48 149.43 200.48 166.3 246.84"/><polygon class="cls-9" points="163.84 246.84 233.31 246.84 216.44 200.48 146.96 200.48 163.84 246.84"/><polygon class="cls-4" points="146.96 200.48 163.84 246.84 191.94 246.84 153.47 200.48 146.96 200.48"/><polygon class="cls-6" points="151.29 246.84 159.77 246.84 167.38 233.51 158.9 233.51 151.29 246.84"/><polygon class="cls-10" points="167.38 233.51 167.38 246.84 159.77 246.84 167.38 233.51"/><polygon class="cls-6" points="198.85 246.84 207.32 246.84 214.93 233.51 206.45 233.51 198.85 246.84"/><polygon class="cls-10" points="214.93 233.51 214.93 246.84 207.32 246.84 214.93 233.51"/></g><g><g><rect class="cls-17" x="264.41" y="244.32" width="56.15" height="2.52"/><rect class="cls-23" x="264.41" y="244.32" width="28.26" height="2.52"/></g><g><polygon class="cls-17" points="289.63 246.84 234.9 246.84 227.75 209.67 282.48 209.67 289.63 246.84"/><path class="cls-23" d="M262.02,228.26c.16,1.84-1.2,3.33-3.04,3.33s-3.46-1.49-3.62-3.33c-.16-1.84,1.2-3.33,3.04-3.33s3.46,1.49,3.62,3.33Z"/></g></g></g><g id="Lamp"><g><g><polygon class="cls-19" points="122.97 240.69 121.17 240.46 130.44 169.98 164.07 151.52 164.95 153.11 132.12 171.13 122.97 240.69"/><path class="cls-12" d="M128.72,170.55c0,1.41,1.15,2.56,2.56,2.56s2.56-1.15,2.56-2.56-1.15-2.56-2.56-2.56-2.56,1.15-2.56,2.56Z"/><path class="cls-12" d="M161.59,152.32c0,1.41,1.15,2.56,2.56,2.56s2.56-1.15,2.56-2.56-1.15-2.56-2.56-2.56-2.56,1.15-2.56,2.56Z"/></g><g><g><polygon class="cls-12" points="181.36 154.66 169.33 168.09 163.77 161.23 160.39 157.05 169.41 146.99 173.94 149.9 181.36 154.66"/><polygon class="cls-1" points="181.36 154.66 169.33 168.09 163.77 161.23 173.94 149.9 181.36 154.66"/></g><polygon class="cls-12" points="198.8 161.29 177.82 184.7 163.89 166.93 179.61 149.38 198.8 161.29"/></g><polygon class="cls-12" points="138.55 246.84 107.51 246.84 109.41 237.09 136.64 237.09 138.55 246.84"/></g></g><g id="Icons"><g><polygon class="cls-21" points="435.67 207.31 384.6 207.31 384.6 141.75 422.52 141.75 435.67 154.24 435.67 207.31"/><rect class="cls-21" x="384.6" y="188.12" width="51.07" height="19.19"/><polygon class="cls-12" points="384.6 188.12 400.75 172.65 415.4 188.12 384.6 188.12"/><polygon class="cls-12" points="405.35 188.12 424.53 163.88 435.67 177.96 435.67 188.12 405.35 188.12"/><path class="cls-5" d="M401.32,162.44c0,3.16-2.56,5.72-5.72,5.72s-5.72-2.56-5.72-5.72,2.56-5.72,5.72-5.72,5.72,2.56,5.72,5.72Z"/><polygon class="cls-2" points="422.52 141.75 435.67 154.24 422.52 154.24 422.52 141.75"/><g><path class="cls-5" d="M396.46,199.84c.19-.06,.4,.04,.44,.22,.37,1.13,1.41,1.93,2.63,1.92,1.52,0,2.77-1.23,2.77-2.75v-6.43c0-.19,.16-.35,.35-.35s.35,.16,.35,.35v6.43c0,1.93-1.55,3.47-3.47,3.47-1.54,0-2.87-1.01-3.31-2.4-.06-.19,.04-.4,.23-.45Z"/><path class="cls-5" d="M405.78,192.8c0-.19,.16-.35,.35-.35h2.9c1.61,0,2.91,1.32,2.91,2.93s-1.3,2.91-2.91,2.91l-2.53,.03v4.03c0,.19-.16,.35-.37,.35-.19,0-.35-.16-.35-.35v-9.55Zm3.25,4.8c1.21-.01,2.21-1.01,2.21-2.23s-1-2.21-2.21-2.21h-2.53v4.44h2.53Z"/><path class="cls-5" d="M419.1,198.09c-.21,0-.37-.15-.37-.35s.16-.37,.37-.37h3.21c.18,.01,.32,.18,.32,.37v3.57c-.01,.1-.06,.2-.13,.26-.91,.72-2.05,1.13-3.31,1.13-2.94-.01-5.33-2.31-5.33-5.21s2.39-5.18,5.33-5.18c1.27,0,2.4,.44,3.32,1.16,.13,.1,.18,.35,.04,.5-.12,.15-.34,.18-.51,.06-.75-.61-1.76-1-2.86-1-2.56,0-4.61,2.01-4.61,4.47s2.05,4.49,4.61,4.49c1,0,1.95-.32,2.71-.88v-3.02h-2.8Z"/></g></g><g><path class="cls-2" d="M309.63,71.02l-32.09,31.86c-2.18,2.16-5.71,2.15-7.87-.03-2.17-2.18-2.16-5.71,.03-7.87l32.08-31.87,7.85,7.91Z"/><polygon class="cls-17" points="309.63 71.02 300.51 80.08 294.44 70.4 301.78 63.11 309.63 71.02"/><path class="cls-2" d="M267.57,104.93h0c-.55-.55-.55-1.45,0-1.99l7.26-7.21,1.99,2-7.26,7.21c-.55,.55-1.45,.55-1.99,0Z"/><path class="cls-2" d="M276.83,97.72l-7.27,7.21c-.55,.55-1.44,.54-1.99,0-.55-.55-.54-1.45,0-2l1.22-1.22,6.03-5.99,1.99,2Z"/><rect class="cls-12" x="295.01" y="65.54" width="16.66" height="7.86" transform="translate(138.88 -194.72) rotate(45.2)"/><path class="cls-12" d="M306.86,73.76l-7.85-7.9,6.63-6.58c2.18-2.17,5.71-2.15,7.87,.03h0c2.17,2.18,2.15,5.71-.03,7.87l-6.63,6.58Z"/><path class="cls-12" d="M289.47,91.04l-11.92,11.84c-1.84,1.82-4.62,2.1-6.74,.84l-1.23,1.23c-.55,.55-1.44,.54-1.99,0-.55-.55-.54-1.45,0-2l1.22-1.22c-1.25-2.13-.95-4.91,.88-6.74l4.02-4,15.75,.05Z"/></g><g><g><rect class="cls-2" x="75.06" y="191.76" width="17.67" height="62.16" transform="translate(306.73 138.95) rotate(90)"/><g><rect class="cls-12" x="102.07" y="218.54" width="13.27" height="8.6" transform="translate(331.54 114.13) rotate(90)"/><rect class="cls-15" x="91.65" y="218.54" width="13.27" height="8.6" transform="translate(321.12 124.56) rotate(90)"/><rect class="cls-14" x="81.22" y="218.54" width="13.27" height="8.6" transform="translate(310.7 134.98) rotate(90)"/><rect class="cls-16" x="70.8" y="218.54" width="13.27" height="8.6" transform="translate(300.27 145.4) rotate(90)"/><rect class="cls-13" x="60.38" y="218.54" width="13.27" height="8.6" transform="translate(289.85 155.82) rotate(90)"/></g><g class="cls-26"><rect x="102.07" y="218.54" width="13.27" height="8.6" transform="translate(331.54 114.13) rotate(90)"/><rect class="cls-29" x="91.65" y="218.54" width="13.27" height="8.6" transform="translate(321.12 124.56) rotate(90)"/><rect class="cls-28" x="81.22" y="218.54" width="13.27" height="8.6" transform="translate(310.7 134.98) rotate(90)"/><rect class="cls-27" x="70.8" y="218.54" width="13.27" height="8.6" transform="translate(300.27 145.4) rotate(90)"/><rect class="cls-26" x="60.38" y="218.54" width="13.27" height="8.6" transform="translate(289.85 155.82) rotate(90)"/></g><path class="cls-19" d="M57.03,223.96c-.62,0-1.12-.5-1.12-1.12s.5-1.12,1.12-1.12,1.12,.5,1.12,1.12-.5,1.12-1.12,1.12Z"/></g><g><rect class="cls-2" x="67.19" y="172.76" width="17.67" height="62.16" transform="translate(166.4 5.95) rotate(45)"/><g><rect class="cls-12" x="86.93" y="182" width="13.27" height="8.6" transform="translate(159.14 -11.6) rotate(45)"/><rect class="cls-15" x="79.56" y="189.37" width="13.27" height="8.6" transform="translate(162.19 -4.23) rotate(45)"/><rect class="cls-14" x="72.19" y="196.74" width="13.27" height="8.6" transform="translate(165.24 3.14) rotate(45)"/><rect class="cls-16" x="64.82" y="204.11" width="13.27" height="8.6" transform="translate(168.3 10.51) rotate(45)"/><rect class="cls-13" x="57.45" y="211.47" width="13.27" height="8.6" transform="translate(171.35 17.88) rotate(45)"/></g><g class="cls-1"><rect x="86.93" y="182" width="13.27" height="8.6" transform="translate(159.14 -11.6) rotate(45)"/><rect class="cls-29" x="79.56" y="189.37" width="13.27" height="8.6" transform="translate(162.19 -4.23) rotate(45)"/><rect class="cls-28" x="72.19" y="196.74" width="13.27" height="8.6" transform="translate(165.24 3.14) rotate(45)"/><rect class="cls-27" x="64.82" y="204.11" width="13.27" height="8.6" transform="translate(168.3 10.51) rotate(45)"/><rect class="cls-26" x="57.45" y="211.47" width="13.27" height="8.6" transform="translate(171.35 17.88) rotate(45)"/></g><path class="cls-19" d="M57.82,223.63c-.44,.44-1.15,.44-1.59,0s-.44-1.15,0-1.59c.44-.44,1.15-.44,1.59,0,.44,.44,.44,1.15,0,1.59Z"/></g><g><rect class="cls-2" x="48.19" y="164.89" width="17.67" height="62.16"/><g><rect class="cls-12" x="50.39" y="166.86" width="13.27" height="8.6"/><rect class="cls-15" x="50.39" y="177.28" width="13.27" height="8.6"/><rect class="cls-14" x="50.39" y="187.71" width="13.27" height="8.6"/><rect class="cls-16" x="50.39" y="198.13" width="13.27" height="8.6"/><rect class="cls-13" x="50.39" y="208.55" width="13.27" height="8.6"/></g><path class="cls-19" d="M58.84,222.84c0,1-.81,1.82-1.82,1.82s-1.82-.81-1.82-1.82,.81-1.82,1.82-1.82,1.82,.81,1.82,1.82Z"/></g></g></g></svg>