<?xml version="1.0" encoding="UTF-8"?><svg id="_圖層_1" xmlns="http://www.w3.org/2000/svg" viewBox="0 0 60 60"><defs><style>.cls-1{fill:#fff;}</style></defs><path d="M25.86,35.27c-.79,.79-1.73,1.18-2.84,1.18-1.23,0-2.23-.39-3.01-1.16-.77-.77-1.16-1.75-1.16-2.93s.39-2.16,1.18-2.93c.79-.77,1.78-1.16,2.99-1.16,1.11,0,2.05,.39,2.84,1.16,.79,.77,1.18,1.75,1.18,2.93s-.39,2.13-1.18,2.91Z"/><path class="cls-1" d="M24.22,33.62c-.34,.34-.76,.52-1.24,.52-.54,0-.97-.17-1.31-.51-.34-.34-.51-.76-.51-1.28s.17-.94,.52-1.28c.34-.34,.78-.51,1.3-.51,.48,0,.9,.17,1.24,.51,.34,.34,.52,.76,.52,1.28s-.17,.93-.52,1.27Z"/><path d="M37.77,35.27c-.79,.79-1.73,1.18-2.84,1.18-1.23,0-2.23-.39-3.01-1.16-.77-.77-1.16-1.75-1.16-2.93s.39-2.16,1.18-2.93c.79-.77,1.78-1.16,2.99-1.16,1.11,0,2.05,.39,2.84,1.16,.79,.77,1.18,1.75,1.18,2.93s-.39,2.13-1.18,2.91Z"/><path d="M48.47,35.28c-1.35,2.51-3.31,4.5-5.88,5.98-2.57,1.47-5.7,2.21-9.38,2.21h-6.32c-3.68,0-6.81-.74-9.38-2.21-2.57-1.47-4.53-3.47-5.88-5.98-1.35-2.51-2.02-5.34-2.02-8.49s.67-6.06,2-8.59c1.34-2.52,3.29-4.51,5.86-5.96,2.57-1.45,5.71-2.17,9.42-2.17h6.28c3.58,0,6.66,.72,9.25,2.17,2.58,1.45,4.58,3.44,5.98,5.98,1.4,2.53,2.1,5.39,2.1,8.57s-.67,5.98-2.02,8.49Zm-4.51-14.39c-1.07-1.68-2.58-2.99-4.52-3.92-1.95-.93-4.24-1.39-6.88-1.39h-5.05c-2.69,0-5,.45-6.94,1.34-1.94,.89-3.43,2.18-4.49,3.86-1.06,1.68-1.58,3.69-1.58,6.03s.52,4.3,1.56,5.96c1.04,1.66,2.54,2.94,4.49,3.85,1.95,.9,4.27,1.36,6.96,1.36h5.05c2.64,0,4.93-.47,6.86-1.39,1.94-.93,3.44-2.23,4.52-3.9,1.08-1.67,1.62-3.63,1.62-5.86s-.53-4.24-1.6-5.92Z"/><path class="cls-1" d="M26.87,41.5c-3.32,0-6.15-.66-8.41-1.95-2.27-1.3-3.94-3-5.12-5.2-1.19-2.21-1.79-4.75-1.79-7.56s.6-5.45,1.78-7.67c1.17-2.2,2.83-3.89,5.09-5.16,2.26-1.28,5.11-1.92,8.46-1.92h6.32c3.23,0,6.02,.65,8.29,1.92,2.28,1.28,3.98,2.98,5.21,5.21,1.23,2.23,1.85,4.79,1.85,7.62s-.6,5.36-1.79,7.56c-1.18,2.2-2.86,3.9-5.12,5.2-2.26,1.3-5.09,1.95-8.41,1.95h-6.36Zm.62-27.89c-3,0-5.65,.52-7.86,1.54-2.31,1.06-4.13,2.64-5.41,4.68-1.27,2.02-1.91,4.44-1.91,7.18s.64,5.11,1.89,7.11c1.26,2.01,3.08,3.57,5.4,4.65,2.23,1.04,4.88,1.56,7.88,1.56h5.09c2.96,0,5.59-.54,7.81-1.61,2.29-1.1,4.11-2.67,5.4-4.67,1.3-2.02,1.97-4.39,1.97-7.03s-.65-5.05-1.94-7.08c-1.28-2.02-3.11-3.61-5.42-4.71-2.24-1.07-4.87-1.61-7.83-1.61h-5.09Z"/><path d="M20.12,42.28h5.5v10.22h-5.5v-10.22Z"/><path d="M34.66,42.28h5.5v10.22h-5.5v-10.22Z"/><path class="cls-1" d="M37.02,44.64h.79v5.5h-.79v-5.5Z"/><path class="cls-1" d="M22.48,44.64h.79v5.5h-.79v-5.5Z"/><path class="cls-1" d="M36.13,33.62c-.34,.34-.76,.52-1.24,.52-.54,0-.97-.17-1.31-.51-.34-.34-.51-.76-.51-1.28s.17-.94,.52-1.28c.34-.34,.78-.51,1.3-.51,.48,0,.9,.17,1.24,.51,.34,.34,.52,.76,.52,1.28s-.17,.93-.52,1.27Z"/></svg>