<?xml version="1.0" encoding="UTF-8"?><svg id="_圖層_1" xmlns="http://www.w3.org/2000/svg" viewBox="0 0 300 60"><defs><style>.cls-1{fill:#fff;}</style></defs><path d="M11.81,32.08c0,1.9,.3,3.54,.9,4.92,.6,1.38,1.47,2.43,2.63,3.17,1.15,.74,2.57,1.1,4.25,1.1,1.28,0,2.41-.22,3.4-.66,.99-.44,1.79-1.04,2.4-1.8,.61-.76,.98-1.64,1.1-2.63h2.47v.02c-.12,1.45-.61,2.76-1.46,3.93-.86,1.17-1.99,2.09-3.4,2.76-1.41,.67-3,1.01-4.78,1.01-2.27,0-4.18-.47-5.74-1.41-1.56-.94-2.74-2.3-3.54-4.07-.8-1.77-1.2-3.89-1.2-6.36v-4.07c0-2.45,.42-4.57,1.25-6.37,.83-1.79,2.05-3.17,3.66-4.13,1.6-.96,3.54-1.44,5.8-1.44,1.37,0,2.64,.2,3.8,.61,1.16,.4,2.17,.97,3.05,1.71,.88,.74,1.57,1.59,2.08,2.56,.51,.97,.81,2.03,.91,3.18h-2.95c-.12-1.02-.48-1.94-1.09-2.77-.61-.83-1.41-1.48-2.4-1.97-1-.48-2.13-.72-3.39-.72-1.64,0-3.04,.38-4.2,1.15-1.16,.77-2.04,1.85-2.65,3.24-.61,1.39-.91,3.03-.91,4.94v4.09Z"/><path d="M53.91,15.27h2.95v28.15h-2.95V15.27Z"/><path d="M61.41,15.27h2.95v28.15h-2.95V15.27Z"/><path d="M69.34,41.94c-1.25-1.15-1.87-2.68-1.87-4.59,0-1.79,.61-3.24,1.84-4.34,1.22-1.11,3.01-1.66,5.37-1.66h5.78v-2.19c0-1.43-.42-2.48-1.26-3.15-.84-.67-1.97-1.01-3.39-1.01-.95,0-1.73,.12-2.33,.35-.6,.23-1.06,.55-1.39,.94-.33,.39-.56,.83-.69,1.31h-2.74c.06-.83,.28-1.57,.64-2.21,.36-.64,.86-1.19,1.47-1.64,.62-.45,1.36-.78,2.21-1,.86-.22,1.81-.33,2.87-.33,1.33,0,2.54,.22,3.65,.66,1.1,.44,1.99,1.16,2.64,2.14,.66,.99,.99,2.29,.99,3.91v14.28h-2.68v-2.95h-.14c-.33,.54-.77,1.06-1.31,1.55-.55,.49-1.21,.89-2,1.19-.79,.3-1.72,.45-2.78,.45-2,0-3.62-.58-4.87-1.73Zm8.46-1.47c.81-.43,1.46-1,1.93-1.74,.48-.73,.72-1.56,.72-2.49v-2.47h-5.58c-1.52,0-2.61,.33-3.27,1-.66,.67-.99,1.51-.99,2.51,0,1.3,.45,2.26,1.35,2.89,.9,.63,1.93,.94,3.11,.94,1.01,0,1.92-.21,2.73-.64Z"/><path d="M93.88,43.27c-.82-.28-1.54-.68-2.14-1.2-.61-.52-1.06-1.14-1.36-1.86h-.27v3.22h-2.68V15.27h2.95v10.99h.14c.16-.55,.42-1.05,.8-1.5,.38-.45,.84-.84,1.4-1.18,.55-.34,1.17-.6,1.85-.77,.68-.18,1.39-.26,2.13-.26,1.61,0,3,.36,4.18,1.08,1.18,.72,2.09,1.72,2.74,3.01,.65,1.29,.97,2.82,.97,4.58v3.79c0,1.76-.33,3.29-.98,4.6-.65,1.3-1.58,2.31-2.78,3.02-1.2,.71-2.62,1.07-4.25,1.07-.98,0-1.88-.14-2.7-.42Zm5.2-2.77c.83-.55,1.47-1.34,1.91-2.37,.44-1.03,.65-2.27,.65-3.71v-2.48c0-1.46-.23-2.71-.67-3.75-.45-1.04-1.09-1.85-1.93-2.4-.84-.56-1.86-.83-3.07-.83s-2.21,.27-3.1,.81c-.89,.54-1.57,1.3-2.04,2.27-.48,.97-.71,2.13-.71,3.46v3.67c0,1.18,.25,2.23,.76,3.17,.51,.93,1.21,1.66,2.11,2.19,.9,.53,1.92,.79,3.08,.79s2.18-.27,3.02-.82Z"/><path d="M119.88,23.52c1.31,.7,2.35,1.73,3.12,3.07,.77,1.34,1.15,2.97,1.15,4.89v3.3c0,1.92-.39,3.55-1.15,4.89-.77,1.34-1.81,2.37-3.12,3.07-1.31,.7-2.79,1.06-4.43,1.06s-3.16-.35-4.48-1.05c-1.32-.7-2.35-1.72-3.11-3.06s-1.13-2.98-1.13-4.91v-3.28c0-1.87,.38-3.48,1.13-4.83,.76-1.35,1.8-2.39,3.12-3.12,1.32-.73,2.81-1.1,4.47-1.1s3.12,.35,4.43,1.06Zm-7.41,2.28c-.89,.56-1.58,1.36-2.07,2.38-.49,1.03-.73,2.23-.73,3.62v2.66c0,1.42,.23,2.64,.71,3.65,.47,1.02,1.15,1.81,2.04,2.36,.89,.56,1.95,.83,3.18,.83s2.26-.27,3.14-.82c.87-.55,1.55-1.34,2.03-2.36,.48-1.03,.72-2.25,.72-3.66v-2.66c0-1.39-.25-2.59-.73-3.61-.49-1.02-1.18-1.81-2.06-2.38-.88-.57-1.91-.85-3.09-.85s-2.23,.28-3.12,.84Z"/><path d="M127.64,22.78h2.95v3.22h.14c.18-.46,.49-.96,.91-1.51,.43-.55,1.04-1.02,1.84-1.41,.8-.39,1.82-.58,3.07-.58,.22,0,.44,0,.66,.02,.22,.01,.42,.03,.62,.06v2.57c-.16-.01-.38-.03-.68-.05-.3-.02-.61-.03-.93-.03-1.21,0-2.23,.22-3.07,.67-.84,.45-1.48,1.06-1.91,1.83-.43,.77-.65,1.66-.65,2.65v13.21h-2.95V22.78Z"/><path d="M140.4,41.94c-1.25-1.15-1.87-2.68-1.87-4.59,0-1.79,.61-3.24,1.84-4.34,1.22-1.11,3.01-1.66,5.37-1.66h5.78v-2.19c0-1.43-.42-2.48-1.26-3.15-.84-.67-1.97-1.01-3.39-1.01-.95,0-1.73,.12-2.33,.35-.6,.23-1.06,.55-1.39,.94-.33,.39-.56,.83-.69,1.31h-2.74c.06-.83,.28-1.57,.64-2.21,.36-.64,.86-1.19,1.47-1.64,.62-.45,1.36-.78,2.21-1,.86-.22,1.81-.33,2.87-.33,1.33,0,2.54,.22,3.65,.66,1.1,.44,1.99,1.16,2.64,2.14,.66,.99,.99,2.29,.99,3.91v14.28h-2.68v-2.95h-.14c-.33,.54-.77,1.06-1.31,1.55-.55,.49-1.21,.89-2,1.19-.79,.3-1.72,.45-2.78,.45-2,0-3.62-.58-4.87-1.73Zm8.46-1.47c.81-.43,1.46-1,1.93-1.74,.48-.73,.72-1.56,.72-2.49v-2.47h-5.58c-1.52,0-2.61,.33-3.27,1-.66,.67-.99,1.51-.99,2.51,0,1.3,.45,2.26,1.35,2.89s1.93,.94,3.11,.94c1.01,0,1.92-.21,2.73-.64Z"/><path d="M159.55,17.68h2.95v5.09h4.56v2.41h-4.56v12.75c0,1.28,.25,2.14,.74,2.56,.49,.43,1.39,.64,2.69,.64,.25,0,.54-.01,.88-.04,.34-.03,.6-.05,.78-.08v2.44c-.16,.03-.51,.06-1.06,.1-.55,.04-.99,.06-1.32,.06-1.58,0-2.77-.21-3.58-.62-.81-.41-1.36-1.05-1.65-1.91-.29-.86-.43-1.95-.43-3.26v-12.63h-3.22v-2.41h3.22v-5.09Z"/><path d="M170.61,14.94c.42-.42,.92-.63,1.51-.63,.65,0,1.19,.21,1.6,.62,.41,.41,.62,.93,.62,1.56s-.21,1.15-.63,1.56c-.42,.41-.95,.62-1.59,.62-.59,0-1.09-.21-1.51-.62-.42-.41-.63-.93-.63-1.56s.21-1.13,.63-1.55Zm.2,7.84h2.95v20.65h-2.95V22.78Z"/><path d="M190.4,23.52c1.31,.7,2.35,1.73,3.12,3.07,.77,1.34,1.15,2.97,1.15,4.89v3.3c0,1.92-.39,3.55-1.15,4.89-.77,1.34-1.81,2.37-3.12,3.07-1.31,.7-2.79,1.06-4.43,1.06s-3.16-.35-4.48-1.05c-1.32-.7-2.35-1.72-3.11-3.06-.76-1.34-1.13-2.98-1.13-4.91v-3.28c0-1.87,.38-3.48,1.13-4.83,.76-1.35,1.8-2.39,3.12-3.12,1.32-.73,2.81-1.1,4.47-1.1s3.12,.35,4.43,1.06Zm-7.41,2.28c-.89,.56-1.58,1.36-2.07,2.38-.49,1.03-.73,2.23-.73,3.62v2.66c0,1.42,.23,2.64,.71,3.65,.47,1.02,1.15,1.81,2.04,2.36,.89,.56,1.95,.83,3.18,.83s2.26-.27,3.14-.82c.87-.55,1.55-1.34,2.03-2.36,.48-1.03,.72-2.25,.72-3.66v-2.66c0-1.39-.25-2.59-.73-3.61-.49-1.02-1.18-1.81-2.06-2.38-.88-.57-1.91-.85-3.09-.85s-2.23,.28-3.12,.84Z"/><path d="M198.16,22.78h2.68v4.02h.16c.18-.57,.49-1.18,.93-1.81,.44-.64,1.08-1.18,1.94-1.63,.86-.45,2-.67,3.42-.67,2.07,0,3.75,.56,5.03,1.69,1.29,1.13,1.93,2.83,1.93,5.1v13.95h-2.68v-13.14c0-1.1-.19-2.04-.57-2.82-.38-.78-.93-1.38-1.65-1.8-.72-.42-1.59-.63-2.63-.63-1.33,0-2.42,.31-3.29,.92-.87,.62-1.51,1.44-1.94,2.46-.43,1.03-.64,2.16-.64,3.41v11.59h-2.68V22.78Z"/><path d="M244.01,43.42v-12.6h-12.33v12.6h-2.95V16.61h2.95v11.53h12.33v-11.53h2.95v26.81h-2.95Z"/><path d="M267.6,43.42h-2.95v-3.49h-.16c-.21,.58-.57,1.17-1.07,1.76s-1.19,1.09-2.04,1.5c-.85,.41-1.89,.61-3.1,.61-1.36,0-2.56-.22-3.63-.66-1.06-.44-1.9-1.15-2.5-2.12-.61-.97-.91-2.25-.91-3.85v-14.41h2.68v13.57c0,1.17,.22,2.1,.65,2.81s1.02,1.22,1.76,1.53c.74,.31,1.57,.47,2.48,.47,1.15,0,2.16-.25,3.04-.75,.87-.5,1.56-1.16,2.06-1.98,.5-.82,.74-1.7,.74-2.63v-13.02h2.95v20.65Z"/><path d="M278.35,43.27c-.82-.28-1.54-.68-2.14-1.2-.61-.52-1.06-1.14-1.36-1.86h-.27v3.22h-2.68V15.27h2.95v10.99h.14c.16-.55,.42-1.05,.8-1.5,.38-.45,.84-.84,1.4-1.18,.55-.34,1.17-.6,1.85-.77,.68-.18,1.39-.26,2.13-.26,1.61,0,3,.36,4.18,1.08,1.18,.72,2.09,1.72,2.74,3.01,.65,1.29,.97,2.82,.97,4.58v3.79c0,1.76-.33,3.29-.98,4.6-.65,1.3-1.58,2.31-2.78,3.02-1.2,.71-2.62,1.07-4.25,1.07-.98,0-1.88-.14-2.7-.42Zm5.2-2.77c.83-.55,1.47-1.34,1.91-2.37,.44-1.03,.65-2.27,.65-3.71v-2.48c0-1.46-.23-2.71-.67-3.75-.45-1.04-1.09-1.85-1.93-2.4-.84-.56-1.86-.83-3.07-.83s-2.21,.27-3.1,.81c-.89,.54-1.57,1.3-2.04,2.27s-.71,2.13-.71,3.46v3.67c0,1.18,.25,2.23,.76,3.17,.51,.93,1.21,1.66,2.11,2.19,.9,.53,1.92,.79,3.08,.79s2.18-.27,3.02-.82Z"/><g><path d="M38.91,34.32c-.4,.4-.89,.6-1.45,.6-.63,0-1.14-.2-1.54-.59-.4-.4-.59-.9-.59-1.5s.2-1.1,.6-1.5c.4-.4,.91-.59,1.53-.59,.57,0,1.05,.2,1.45,.59,.4,.4,.6,.9,.6,1.5s-.2,1.09-.6,1.49Z"/><path class="cls-1" d="M38.07,33.48c-.18,.18-.39,.26-.63,.26-.27,0-.5-.09-.67-.26-.17-.17-.26-.39-.26-.66s.09-.48,.26-.66c.18-.17,.4-.26,.67-.26,.25,0,.46,.09,.63,.26,.18,.17,.26,.39,.26,.66s-.09,.48-.26,.65Z"/><path d="M45,34.32c-.4,.4-.89,.6-1.45,.6-.63,0-1.14-.2-1.54-.59-.4-.4-.59-.9-.59-1.5s.2-1.1,.6-1.5c.4-.4,.91-.59,1.53-.59,.57,0,1.05,.2,1.45,.59,.4,.4,.6,.9,.6,1.5s-.2,1.09-.6,1.49Z"/><path d="M50.48,34.33c-.69,1.28-1.69,2.3-3.01,3.06-1.32,.75-2.92,1.13-4.8,1.13h-3.23c-1.88,0-3.48-.38-4.8-1.13-1.32-.75-2.32-1.77-3.01-3.06-.69-1.28-1.04-2.73-1.04-4.35s.34-3.1,1.03-4.39c.68-1.29,1.68-2.31,3-3.05,1.32-.74,2.92-1.11,4.82-1.11h3.21c1.83,0,3.41,.37,4.73,1.11,1.32,.74,2.34,1.76,3.06,3.06,.72,1.3,1.07,2.76,1.07,4.38s-.35,3.06-1.04,4.35Zm-2.31-7.37c-.55-.86-1.32-1.53-2.32-2.01-1-.48-2.17-.71-3.52-.71h-2.59c-1.38,0-2.56,.23-3.55,.69-.99,.46-1.76,1.12-2.3,1.98-.54,.86-.81,1.89-.81,3.09s.27,2.2,.8,3.05c.53,.85,1.3,1.51,2.3,1.97,1,.46,2.18,.69,3.56,.69h2.59c1.35,0,2.52-.24,3.51-.71,.99-.48,1.76-1.14,2.32-2,.55-.86,.83-1.86,.83-3s-.27-2.17-.82-3.03Z"/><path class="cls-1" d="M39.43,37.51c-1.7,0-3.15-.34-4.3-1-1.16-.67-2.02-1.54-2.62-2.66-.61-1.13-.92-2.43-.92-3.87s.31-2.79,.91-3.93c.6-1.13,1.45-1.99,2.6-2.64,1.16-.65,2.61-.98,4.33-.98h3.24c1.65,0,3.08,.33,4.25,.98,1.17,.65,2.04,1.53,2.67,2.67,.63,1.14,.95,2.45,.95,3.9s-.31,2.74-.92,3.87c-.61,1.12-1.46,1.99-2.62,2.66-1.16,.66-2.6,1-4.3,1h-3.26Zm.32-14.28c-1.54,0-2.89,.27-4.02,.79-1.18,.54-2.12,1.35-2.77,2.39-.65,1.04-.98,2.27-.98,3.68s.33,2.61,.97,3.64c.65,1.03,1.58,1.83,2.77,2.38,1.14,.53,2.5,.8,4.03,.8h2.61c1.51,0,2.86-.28,4-.82,1.17-.56,2.1-1.37,2.77-2.39,.67-1.03,1.01-2.25,1.01-3.6s-.33-2.58-.99-3.62c-.66-1.04-1.59-1.85-2.77-2.41-1.14-.55-2.49-.82-4.01-.82h-2.61Z"/><path d="M35.97,37.91h2.82v5.23h-2.82v-5.23Z"/><path d="M43.41,37.91h2.82v5.23h-2.82v-5.23Z"/><path class="cls-1" d="M44.62,39.12h.4v2.82h-.4v-2.82Z"/><path class="cls-1" d="M37.18,39.12h.4v2.82h-.4v-2.82Z"/><path class="cls-1" d="M44.16,33.48c-.18,.18-.39,.26-.63,.26-.27,0-.5-.09-.67-.26-.17-.17-.26-.39-.26-.66s.09-.48,.26-.66c.18-.17,.4-.26,.67-.26,.25,0,.46,.09,.63,.26,.18,.17,.26,.39,.26,.66s-.09,.48-.26,.65Z"/></g><path class="cls-1" d="M284.62,36.09c.18,.18,.26,.39,.26,.63,0,.27-.09,.5-.26,.67-.17,.17-.39,.26-.66,.26s-.48-.09-.66-.26c-.17-.18-.26-.4-.26-.67,0-.25,.09-.46,.26-.63,.17-.18,.39-.26,.66-.26s.48,.09,.65,.26Z"/><g><path d="M286.81,24.48c1.28,.69,2.3,1.69,3.06,3.01s1.13,2.92,1.13,4.8v3.23c0,1.88-.38,3.48-1.13,4.8s-1.77,2.32-3.06,3.01c-1.28,.69-2.73,1.04-4.35,1.04s-3.1-.34-4.39-1.03c-1.29-.68-2.31-1.68-3.05-3-.74-1.32-1.11-2.92-1.11-4.82v-3.21c0-1.83,.37-3.41,1.11-4.73,.74-1.32,1.76-2.34,3.06-3.06,1.3-.72,2.76-1.07,4.38-1.07s3.06,.35,4.35,1.04Zm-7.37,2.31c-.86,.55-1.53,1.32-2.01,2.32-.48,1-.71,2.17-.71,3.52v2.59c0,1.38,.23,2.56,.69,3.55,.46,.99,1.12,1.76,1.98,2.3,.86,.54,1.89,.81,3.09,.81s2.2-.27,3.05-.8c.85-.53,1.51-1.3,1.97-2.3,.46-1,.69-2.18,.69-3.56v-2.59c0-1.35-.24-2.52-.71-3.51-.48-.99-1.14-1.76-2-2.32-.86-.55-1.86-.83-3-.83s-2.17,.27-3.03,.82Z"/><path class="cls-1" d="M289.99,35.53c0,1.7-.34,3.15-1,4.3-.67,1.16-1.54,2.02-2.66,2.62-1.13,.61-2.43,.92-3.87,.92s-2.79-.31-3.93-.91c-1.13-.6-1.99-1.45-2.64-2.6-.65-1.16-.98-2.61-.98-4.33v-3.24c0-1.65,.33-3.08,.98-4.25,.65-1.17,1.53-2.04,2.67-2.67,1.14-.63,2.45-.95,3.9-.95s2.74,.31,3.87,.92c1.12,.61,1.99,1.46,2.66,2.62,.66,1.16,1,2.6,1,4.3v3.26Zm-14.28-.32c0,1.54,.27,2.89,.79,4.02,.54,1.18,1.35,2.12,2.39,2.77,1.04,.65,2.27,.98,3.68,.98s2.61-.33,3.64-.97c1.03-.65,1.83-1.58,2.38-2.77,.53-1.14,.8-2.5,.8-4.03v-2.61c0-1.51-.28-2.86-.82-4-.56-1.17-1.37-2.1-2.39-2.77-1.03-.67-2.25-1.01-3.6-1.01s-2.58,.33-3.62,.99c-1.04,.66-1.85,1.59-2.41,2.77-.55,1.14-.82,2.49-.82,4.01v2.61Z"/></g><g><path d="M191.74,24.9c1.28,.69,2.3,1.69,3.06,3.01s1.13,2.92,1.13,4.8v3.23c0,1.88-.38,3.48-1.13,4.8-.75,1.32-1.77,2.32-3.06,3.01-1.28,.69-2.73,1.04-4.35,1.04s-3.1-.34-4.39-1.03c-1.29-.68-2.31-1.68-3.05-3-.74-1.32-1.11-2.92-1.11-4.82v-3.21c0-1.83,.37-3.41,1.11-4.73,.74-1.32,1.76-2.34,3.06-3.06s2.76-1.07,4.38-1.07,3.06,.35,4.35,1.04Zm-7.37,2.31c-.86,.55-1.53,1.32-2.01,2.32-.48,1-.71,2.17-.71,3.52v2.59c0,1.38,.23,2.56,.69,3.55,.46,.99,1.12,1.76,1.98,2.3,.86,.54,1.89,.81,3.09,.81s2.2-.27,3.05-.8c.85-.53,1.51-1.3,1.97-2.3,.46-1,.69-2.18,.69-3.56v-2.59c0-1.35-.24-2.52-.71-3.51-.48-.99-1.14-1.76-2-2.32-.86-.55-1.86-.83-3-.83s-2.17,.27-3.03,.82Z"/><path class="cls-1" d="M194.92,35.96c0,1.7-.34,3.15-1,4.3-.67,1.16-1.54,2.02-2.66,2.62-1.13,.61-2.43,.92-3.87,.92s-2.79-.31-3.93-.91c-1.13-.6-1.99-1.45-2.64-2.6-.65-1.16-.98-2.61-.98-4.33v-3.24c0-1.65,.33-3.08,.98-4.25,.65-1.17,1.53-2.04,2.67-2.67,1.14-.63,2.45-.95,3.9-.95s2.74,.31,3.87,.92c1.12,.61,1.99,1.46,2.66,2.62,.66,1.16,1,2.6,1,4.3v3.26Zm-14.28-.32c0,1.54,.27,2.89,.79,4.02,.54,1.18,1.35,2.12,2.39,2.77,1.04,.65,2.27,.98,3.68,.98s2.61-.33,3.64-.97c1.03-.65,1.83-1.58,2.38-2.77,.53-1.14,.8-2.5,.8-4.03v-2.61c0-1.51-.28-2.86-.82-4-.56-1.17-1.37-2.1-2.39-2.77-1.03-.67-2.25-1.01-3.6-1.01s-2.58,.33-3.62,.99c-1.04,.66-1.85,1.59-2.41,2.77-.55,1.14-.82,2.49-.82,4.01v2.61Z"/></g><g><path d="M120.68,24.9c1.28,.69,2.3,1.69,3.06,3.01s1.13,2.92,1.13,4.8v3.23c0,1.88-.38,3.48-1.13,4.8-.75,1.32-1.77,2.32-3.06,3.01-1.28,.69-2.73,1.04-4.35,1.04s-3.1-.34-4.39-1.03c-1.29-.68-2.31-1.68-3.05-3-.74-1.32-1.11-2.92-1.11-4.82v-3.21c0-1.83,.37-3.41,1.11-4.73,.74-1.32,1.76-2.34,3.06-3.06s2.76-1.07,4.38-1.07,3.06,.35,4.35,1.04Zm-7.37,2.31c-.86,.55-1.53,1.32-2.01,2.32-.48,1-.71,2.17-.71,3.52v2.59c0,1.38,.23,2.56,.69,3.55,.46,.99,1.12,1.76,1.98,2.3,.86,.54,1.89,.81,3.09,.81s2.2-.27,3.05-.8c.85-.53,1.51-1.3,1.97-2.3,.46-1,.69-2.18,.69-3.56v-2.59c0-1.35-.24-2.52-.71-3.51-.48-.99-1.14-1.76-2-2.32-.86-.55-1.86-.83-3-.83s-2.17,.27-3.03,.82Z"/><path class="cls-1" d="M123.87,35.96c0,1.7-.34,3.15-1,4.3-.67,1.16-1.54,2.02-2.66,2.62-1.13,.61-2.43,.92-3.87,.92s-2.79-.31-3.93-.91c-1.13-.6-1.99-1.45-2.64-2.6-.65-1.16-.98-2.61-.98-4.33v-3.24c0-1.65,.33-3.08,.98-4.25,.65-1.17,1.53-2.04,2.67-2.67,1.14-.63,2.45-.95,3.9-.95s2.74,.31,3.87,.92c1.12,.61,1.99,1.46,2.66,2.62,.66,1.16,1,2.6,1,4.3v3.26Zm-14.28-.32c0,1.54,.27,2.89,.79,4.02,.54,1.18,1.35,2.12,2.39,2.77,1.04,.65,2.27,.98,3.68,.98s2.61-.33,3.64-.97c1.03-.65,1.83-1.58,2.38-2.77,.53-1.14,.8-2.5,.8-4.03v-2.61c0-1.51-.28-2.86-.82-4-.56-1.17-1.37-2.1-2.39-2.77-1.03-.67-2.25-1.01-3.6-1.01s-2.58,.33-3.62,.99c-1.04,.66-1.85,1.59-2.41,2.77-.55,1.14-.82,2.49-.82,4.01v2.61Z"/></g><path class="cls-1" d="M284.62,29.99c.18,.18,.26,.39,.26,.63,0,.27-.09,.5-.26,.67-.17,.17-.39,.26-.66,.26s-.48-.09-.66-.26c-.17-.18-.26-.4-.26-.67,0-.25,.09-.46,.26-.63,.17-.18,.39-.26,.66-.26s.48,.09,.65,.26Z"/></svg>